<svg width="156" height="47" viewBox="0 0 156 47" fill="none" xmlns="http://www.w3.org/2000/svg">
<rect y="0.503174" width="156" height="45.707" rx="4.28235" fill="#F2F2F2"/>
<path d="M34.5297 23.4794C34.5166 21.1235 35.5958 19.3454 37.7803 18.0359C36.558 16.3091 34.7117 15.359 32.2737 15.1729C29.9658 14.9931 27.4433 16.5017 26.5201 16.5017C25.545 16.5017 23.3085 15.2371 21.5532 15.2371C17.9255 15.2948 14.0703 18.0936 14.0703 23.7875C14.0703 25.4693 14.3824 27.2068 15.0065 28.9999C15.8386 31.3558 18.8422 37.1331 21.9758 37.0368C23.6141 36.9983 24.7713 35.8878 26.9037 35.8878C28.9711 35.8878 30.0438 37.0368 31.8707 37.0368C35.0302 36.9919 37.7478 31.7409 38.5409 29.3786C34.3021 27.4079 34.5297 23.6013 34.5297 23.4794ZM30.85 12.939C32.6248 10.8592 32.4623 8.96548 32.4103 8.28504C30.8435 8.37491 29.0296 9.3378 27.9959 10.5254C26.8582 11.7964 26.1886 13.3691 26.3316 15.1408C28.0284 15.2692 29.5757 14.409 30.85 12.939Z" fill="#333333"/>
<path d="M57.8333 32.9224H51.909L50.6695 36.4834H47.9068L53.6842 21.1892H56.0686L61.8564 36.4834H59.0833L57.8333 32.9224ZM52.6547 30.7796H57.0875L54.8711 24.435L52.6547 30.7796ZM72.8018 30.9161C72.8018 32.6738 72.4026 34.0779 71.6043 35.1283C70.806 36.1717 69.7346 36.6935 68.39 36.6935C67.1435 36.6935 66.1456 36.2838 65.3963 35.4645V40.8531H62.8438V25.1178H65.1968L65.3018 26.2733C66.0511 25.3629 67.07 24.9077 68.3585 24.9077C69.7451 24.9077 70.8305 25.4259 71.6148 26.4624C72.4061 27.4918 72.8018 28.9238 72.8018 30.7586V30.9161ZM70.2598 30.6956C70.2598 29.5611 70.0322 28.6612 69.577 27.996C69.1288 27.3307 68.4846 26.9981 67.6442 26.9981C66.6008 26.9981 65.8515 27.4287 65.3963 28.2901V33.3321C65.8585 34.2145 66.6148 34.6556 67.6653 34.6556C68.4776 34.6556 69.1113 34.33 69.5665 33.6787C70.0287 33.0205 70.2598 32.0261 70.2598 30.6956ZM84.9237 30.9161C84.9237 32.6738 84.5245 34.0779 83.7262 35.1283C82.9279 36.1717 81.8564 36.6935 80.5119 36.6935C79.2654 36.6935 78.2675 36.2838 77.5182 35.4645V40.8531H74.9657V25.1178H77.3186L77.4237 26.2733C78.173 25.3629 79.1919 24.9077 80.4804 24.9077C81.8669 24.9077 82.9524 25.4259 83.7367 26.4624C84.528 27.4918 84.9237 28.9238 84.9237 30.7586V30.9161ZM82.3816 30.6956C82.3816 29.5611 82.154 28.6612 81.6989 27.996C81.2507 27.3307 80.6064 26.9981 79.7661 26.9981C78.7227 26.9981 77.9734 27.4287 77.5182 28.2901V33.3321C77.9804 34.2145 78.7367 34.6556 79.7871 34.6556C80.5994 34.6556 81.2332 34.33 81.6884 33.6787C82.1505 33.0205 82.3816 32.0261 82.3816 30.6956ZM100.69 32.5443C100.69 31.872 100.452 31.3538 99.9762 30.9897C99.507 30.6255 98.6561 30.2579 97.4237 29.8867C96.1912 29.5156 95.2108 29.1024 94.4825 28.6472C93.0889 27.7719 92.3921 26.6304 92.3921 25.2229C92.3921 23.9904 92.8928 22.975 93.8942 22.1766C94.9026 21.3783 96.2087 20.9792 97.8123 20.9792C98.8767 20.9792 99.8256 21.1752 100.659 21.5674C101.492 21.9596 102.147 22.5198 102.623 23.2481C103.099 23.9694 103.338 24.7712 103.338 25.6535H100.69C100.69 24.8552 100.438 24.232 99.9342 23.7838C99.437 23.3286 98.7227 23.101 97.7913 23.101C96.923 23.101 96.2472 23.2866 95.764 23.6577C95.2878 24.0289 95.0497 24.5471 95.0497 25.2124C95.0497 25.7726 95.3088 26.2418 95.827 26.6199C96.3452 26.9911 97.1996 27.3552 98.39 27.7124C99.5805 28.0625 100.536 28.4652 101.258 28.9203C101.979 29.3685 102.508 29.8867 102.844 30.475C103.18 31.0562 103.348 31.739 103.348 32.5233C103.348 33.7978 102.858 34.8132 101.877 35.5695C100.904 36.3188 99.5805 36.6935 97.9068 36.6935C96.8004 36.6935 95.7815 36.4904 94.8501 36.0842C93.9258 35.671 93.2045 35.1038 92.6863 34.3825C92.1751 33.6612 91.9195 32.8209 91.9195 31.8615H94.577C94.577 32.7299 94.8641 33.4021 95.4384 33.8783C96.0126 34.3545 96.8354 34.5926 97.9068 34.5926C98.8312 34.5926 99.5245 34.407 99.9867 34.0359C100.456 33.6577 100.69 33.1605 100.69 32.5443ZM108.632 22.3552V25.1178H110.638V27.0086H108.632V33.3531C108.632 33.7873 108.716 34.1024 108.884 34.2985C109.059 34.4876 109.367 34.5821 109.808 34.5821C110.102 34.5821 110.4 34.5471 110.701 34.4771V36.4519C110.12 36.6129 109.56 36.6935 109.02 36.6935C107.06 36.6935 106.079 35.6115 106.079 33.4477V27.0086H104.209V25.1178H106.079V22.3552H108.632ZM111.804 30.6956C111.804 29.5821 112.024 28.5807 112.466 27.6914C112.907 26.795 113.527 26.1087 114.325 25.6325C115.123 25.1493 116.041 24.9077 117.077 24.9077C118.611 24.9077 119.854 25.4014 120.806 26.3888C121.765 27.3762 122.284 28.6857 122.361 30.3174L122.371 30.9161C122.371 32.0366 122.154 33.038 121.72 33.9203C121.293 34.8027 120.676 35.4855 119.871 35.9687C119.073 36.4519 118.148 36.6935 117.098 36.6935C115.494 36.6935 114.209 36.1612 113.243 35.0968C112.284 34.0254 111.804 32.6003 111.804 30.8216V30.6956ZM114.356 30.9161C114.356 32.0856 114.598 33.003 115.081 33.6682C115.564 34.3265 116.237 34.6556 117.098 34.6556C117.959 34.6556 118.628 34.3195 119.104 33.6472C119.588 32.975 119.829 31.9911 119.829 30.6956C119.829 29.5471 119.581 28.6367 119.083 27.9645C118.593 27.2922 117.924 26.9561 117.077 26.9561C116.244 26.9561 115.582 27.2887 115.092 27.954C114.602 28.6122 114.356 29.5996 114.356 30.9161ZM130.48 27.4498C130.144 27.3937 129.798 27.3657 129.44 27.3657C128.271 27.3657 127.483 27.8139 127.077 28.7103V36.4834H124.524V25.1178H126.961L127.024 26.3888C127.641 25.4014 128.495 24.9077 129.588 24.9077C129.952 24.9077 130.253 24.9568 130.491 25.0548L130.48 27.4498ZM136.888 36.6935C135.27 36.6935 133.957 36.1857 132.949 35.1703C131.947 34.1479 131.447 32.7894 131.447 31.0947V30.7796C131.447 29.6451 131.664 28.6332 132.098 27.7439C132.539 26.8475 133.155 26.1507 133.947 25.6535C134.738 25.1563 135.62 24.9077 136.594 24.9077C138.141 24.9077 139.335 25.4014 140.176 26.3888C141.023 27.3762 141.447 28.7733 141.447 30.58V31.6094H134.02C134.097 32.5478 134.409 33.2901 134.955 33.8363C135.508 34.3825 136.202 34.6556 137.035 34.6556C138.204 34.6556 139.157 34.1829 139.892 33.2376L141.268 34.5506C140.813 35.2299 140.204 35.7586 139.44 36.1367C138.684 36.5079 137.833 36.6935 136.888 36.6935ZM136.583 26.9561C135.883 26.9561 135.316 27.2012 134.882 27.6914C134.454 28.1815 134.181 28.8643 134.062 29.7397H138.926V29.5506C138.87 28.6963 138.642 28.052 138.243 27.6178C137.844 27.1766 137.291 26.9561 136.583 26.9561Z" fill="#333333"/>
<path d="M49.923 16.1685V7.71155H52.6878C53.6055 7.71155 54.2947 7.90129 54.7555 8.28076C55.2202 8.66024 55.4525 9.22171 55.4525 9.96518C55.4525 10.3601 55.3402 10.7106 55.1156 11.0165C54.8911 11.3185 54.5851 11.5528 54.1979 11.7193C54.6548 11.8471 55.015 12.091 55.2783 12.4511C55.5455 12.8074 55.679 13.2333 55.679 13.729C55.679 14.4879 55.4332 15.0842 54.9414 15.5179C54.4496 15.9516 53.7546 16.1685 52.8562 16.1685H49.923ZM51.0382 12.213V15.2565H52.8794C53.3983 15.2565 53.8068 15.123 54.105 14.8558C54.407 14.5847 54.558 14.213 54.558 13.7406C54.558 12.7222 54.0043 12.213 52.8969 12.213H51.0382ZM51.0382 11.3185H52.7226C53.2105 11.3185 53.5997 11.1965 53.8901 10.9526C54.1844 10.7086 54.3315 10.3776 54.3315 9.95937C54.3315 9.4947 54.196 9.15782 53.9249 8.94872C53.6539 8.73575 53.2415 8.62926 52.6878 8.62926H51.0382V11.3185ZM61.0459 16.1685C60.984 16.0445 60.9336 15.8238 60.8949 15.5063C60.3954 16.0252 59.7991 16.2846 59.106 16.2846C58.4864 16.2846 57.9772 16.1104 57.5784 15.7619C57.1834 15.4095 56.9859 14.9642 56.9859 14.426C56.9859 13.7716 57.2337 13.2643 57.7294 12.9042C58.2289 12.5402 58.9298 12.3582 59.832 12.3582H60.8775V11.8645C60.8775 11.4889 60.7652 11.1907 60.5406 10.97C60.316 10.7454 59.9849 10.6331 59.5474 10.6331C59.164 10.6331 58.8426 10.7299 58.5832 10.9235C58.3238 11.1172 58.194 11.3514 58.194 11.6264H57.1137C57.1137 11.3127 57.2241 11.0107 57.4448 10.7203C57.6694 10.426 57.9714 10.1936 58.3509 10.0233C58.7342 9.85288 59.1544 9.76769 59.6113 9.76769C60.3354 9.76769 60.9027 9.94969 61.3131 10.3137C61.7236 10.6738 61.9365 11.1714 61.952 11.8064V14.699C61.952 15.2759 62.0256 15.7348 62.1727 16.0755V16.1685H61.0459ZM59.2628 15.3495C59.5997 15.3495 59.9191 15.2624 60.2211 15.0881C60.5232 14.9139 60.742 14.6873 60.8775 14.4085V13.1191H60.0353C58.7187 13.1191 58.0605 13.5044 58.0605 14.2749C58.0605 14.6118 58.1728 14.8751 58.3973 15.0649C58.6219 15.2546 58.9104 15.3495 59.2628 15.3495ZM64.8039 16.1685H63.7294V9.88386H64.8039V16.1685ZM63.6422 8.21687C63.6422 8.04262 63.6945 7.89548 63.7991 7.77544C63.9075 7.6554 64.0663 7.59538 64.2754 7.59538C64.4845 7.59538 64.6432 7.6554 64.7516 7.77544C64.8601 7.89548 64.9143 8.04262 64.9143 8.21687C64.9143 8.39112 64.8601 8.53633 64.7516 8.6525C64.6432 8.76866 64.4845 8.82675 64.2754 8.82675C64.0663 8.82675 63.9075 8.76866 63.7991 8.6525C63.6945 8.53633 63.6422 8.39112 63.6422 8.21687ZM68.6374 12.1781L70.0314 9.88386H71.286L69.2298 12.9913L71.3499 16.1685H70.1069L68.6548 13.8161L67.2027 16.1685H65.954L68.074 12.9913L66.0178 9.88386H67.2608L68.6374 12.1781ZM76.3102 16.1685C76.2482 16.0445 76.1979 15.8238 76.1592 15.5063C75.6596 16.0252 75.0633 16.2846 74.3702 16.2846C73.7506 16.2846 73.2414 16.1104 72.8426 15.7619C72.4476 15.4095 72.2502 14.9642 72.2502 14.426C72.2502 13.7716 72.498 13.2643 72.9936 12.9042C73.4931 12.5402 74.194 12.3582 75.0962 12.3582H76.1417V11.8645C76.1417 11.4889 76.0294 11.1907 75.8049 10.97C75.5803 10.7454 75.2492 10.6331 74.8116 10.6331C74.4283 10.6331 74.1069 10.7299 73.8474 10.9235C73.588 11.1172 73.4583 11.3514 73.4583 11.6264H72.3779C72.3779 11.3127 72.4883 11.0107 72.709 10.7203C72.9336 10.426 73.2356 10.1936 73.6151 10.0233C73.9985 9.85288 74.4186 9.76769 74.8755 9.76769C75.5996 9.76769 76.1669 9.94969 76.5774 10.3137C76.9878 10.6738 77.2008 11.1714 77.2163 11.8064V14.699C77.2163 15.2759 77.2898 15.7348 77.437 16.0755V16.1685H76.3102ZM74.527 15.3495C74.8639 15.3495 75.1834 15.2624 75.4854 15.0881C75.7874 14.9139 76.0062 14.6873 76.1417 14.4085V13.1191H75.2995C73.983 13.1191 73.3247 13.5044 73.3247 14.2749C73.3247 14.6118 73.437 14.8751 73.6616 15.0649C73.8862 15.2546 74.1747 15.3495 74.527 15.3495ZM81.9384 10.848C81.7758 10.8209 81.5996 10.8074 81.4099 10.8074C80.7051 10.8074 80.2269 11.1075 79.9752 11.7077V16.1685H78.9007V9.88386H79.9462L79.9636 10.6099C80.316 10.0484 80.8155 9.76769 81.4621 9.76769C81.6712 9.76769 81.83 9.7948 81.9384 9.84901V10.848ZM86.8987 9.88386L86.9336 10.6738C87.4137 10.0697 88.041 9.76769 88.8155 9.76769C90.1436 9.76769 90.8135 10.517 90.8251 12.0155V16.1685H89.7506V12.0097C89.7467 11.5567 89.6422 11.2217 89.437 11.0049C89.2356 10.788 88.92 10.6796 88.4902 10.6796C88.1417 10.6796 87.8358 10.7725 87.5725 10.9584C87.3092 11.1443 87.104 11.3882 86.9568 11.6902V16.1685H85.8823V9.88386H86.8987ZM96.3256 16.1685C96.2637 16.0445 96.2133 15.8238 96.1746 15.5063C95.6751 16.0252 95.0788 16.2846 94.3856 16.2846C93.7661 16.2846 93.2569 16.1104 92.8581 15.7619C92.4631 15.4095 92.2656 14.9642 92.2656 14.426C92.2656 13.7716 92.5134 13.2643 93.0091 12.9042C93.5086 12.5402 94.2095 12.3582 95.1117 12.3582H96.1572V11.8645C96.1572 11.4889 96.0449 11.1907 95.8203 10.97C95.5957 10.7454 95.2646 10.6331 94.8271 10.6331C94.4437 10.6331 94.1223 10.7299 93.8629 10.9235C93.6035 11.1172 93.4737 11.3514 93.4737 11.6264H92.3934C92.3934 11.3127 92.5038 11.0107 92.7245 10.7203C92.9491 10.426 93.2511 10.1936 93.6306 10.0233C94.0139 9.85288 94.434 9.76769 94.891 9.76769C95.6151 9.76769 96.1823 9.94969 96.5928 10.3137C97.0033 10.6738 97.2162 11.1714 97.2317 11.8064V14.699C97.2317 15.2759 97.3053 15.7348 97.4524 16.0755V16.1685H96.3256ZM94.5425 15.3495C94.8794 15.3495 95.1988 15.2624 95.5008 15.0881C95.8029 14.9139 96.0217 14.6873 96.1572 14.4085V13.1191H95.315C93.9984 13.1191 93.3401 13.5044 93.3401 14.2749C93.3401 14.6118 93.4524 14.8751 93.677 15.0649C93.9016 15.2546 94.1901 15.3495 94.5425 15.3495Z" fill="#333333"/>
</svg>
