<svg width="104" height="144" viewBox="0 0 104 144" fill="none" xmlns="http://www.w3.org/2000/svg">
<rect x="38.3931" y="92.0374" width="26.06" height="24.4312" fill="#F6C09D"/>
<path fill-rule="evenodd" clip-rule="evenodd" d="M64.453 102.678C60.4175 104.727 55.8516 105.882 51.0159 105.882C46.5027 105.882 42.2245 104.876 38.3931 103.076V96.1093H64.453V102.678Z" fill="#DF6664"/>
<path fill-rule="evenodd" clip-rule="evenodd" d="M21.2913 30.5522C21.2913 14.1358 34.5994 0.827564 51.0159 0.827564C67.4324 0.827564 80.7406 14.1357 80.7406 30.5522V49.69C85.2382 49.69 88.8843 53.3361 88.8843 57.8337C88.8843 62.3314 85.2382 65.9775 80.7406 65.9775V71.2709C80.7406 87.6874 67.4324 100.996 51.0159 100.996C34.5994 100.996 21.2913 87.6874 21.2913 71.2709V65.9775H21.2912C16.7935 65.9775 13.1474 62.3314 13.1474 57.8337C13.1474 53.3361 16.7935 49.69 21.2912 49.69H21.2913V30.5522Z" fill="#F6C09D"/>
<ellipse cx="37.9856" cy="52.5403" rx="2.85031" ry="2.85031" fill="#66CDD9"/>
<ellipse cx="64.8601" cy="52.5403" rx="2.8503" ry="2.85031" fill="#66CDD9"/>
<rect x="48.1655" y="48.0612" width="8.14372" height="19.545" rx="4.07186" fill="#DF6664"/>
<rect x="47.3511" y="45.6182" width="8.14374" height="19.545" rx="4.07187" fill="#F6C09D"/>
<path d="M13.6745 43.0544C12.3359 38.031 19.3632 22.9608 21.5383 17.7753C22.8769 15.5067 26.3236 11.2611 29.4022 12.4278C32.4808 13.5946 29.4022 17.7753 27.3944 20.6922C24.7174 26.1369 27.8406 32.2514 29.7368 34.628C28.956 35.3843 27.0598 37.4476 25.7213 39.6515C24.3827 41.8553 24.3827 48.3479 24.55 51.3187H17.5228C16.6862 50.2384 14.7453 47.0731 13.6745 43.0544Z" fill="#7B7B7B"/>
<path d="M33.5181 42.4385C31.0826 41.9359 29.2383 43.9881 28.6206 45.077C29.1059 45.077 30.2884 45.2277 31.1355 45.8308C32.1944 46.5847 32.3331 47.7445 34.8417 48.5949C36.6948 49.2231 40.6658 47.9667 42.3865 47.9667C43.7631 47.9667 45.2544 49.1394 45.828 49.7257C46.0044 49.5582 46.3171 49.3488 46.5289 48.3436C46.7936 47.0872 40.3619 46.2077 38.8127 45.5795C37.1887 44.921 36.5625 43.0667 33.5181 42.4385Z" fill="#7B7B7B"/>
<path d="M44.2396 53.4949C43.313 54.6676 40.9305 57.0129 38.8127 57.0129C36.1654 57.0129 34.0475 57.2642 31.1355 54.6257M28.6206 45.077C29.2383 43.9881 31.0826 41.9359 33.5181 42.4385C36.5625 43.0667 37.1887 44.921 38.8127 45.5795C40.3619 46.2077 46.7936 47.0872 46.5289 48.3436C46.3171 49.3488 46.0044 49.5582 45.828 49.7257C45.2544 49.1394 43.7631 47.9667 42.3865 47.9667C40.6658 47.9667 36.6948 49.2231 34.8417 48.5949C32.3331 47.7445 32.1944 46.5847 31.1355 45.8308C30.2884 45.2277 29.1059 45.077 28.6206 45.077Z" stroke="#7B7B7B" stroke-width="1.03103"/>
<path d="M69.3281 42.4385C71.7636 41.9359 73.6079 43.9881 74.2256 45.077C73.7402 45.077 72.5578 45.2277 71.7107 45.8308C70.6517 46.5847 70.5131 47.7445 68.0045 48.5949C66.1514 49.2231 62.1804 47.9667 60.4597 47.9667C59.0831 47.9667 57.5918 49.1394 57.0182 49.7257C56.8417 49.5582 56.5291 49.3488 56.3173 48.3436C56.0526 47.0872 62.4843 46.2077 64.0335 45.5795C65.6575 44.921 66.2837 43.0667 69.3281 42.4385Z" fill="#7B7B7B"/>
<path d="M58.6066 53.4949C59.5331 54.6676 61.9157 57.0129 64.0335 57.0129C66.6808 57.0129 68.7986 57.2642 71.7107 54.6257M74.2256 45.077C73.6079 43.9881 71.7636 41.9359 69.3281 42.4385C66.2837 43.0667 65.6575 44.921 64.0335 45.5795C62.4843 46.2077 56.0526 47.0872 56.3173 48.3436C56.5291 49.3488 56.8417 49.5582 57.0182 49.7257C57.5918 49.1394 59.0831 47.9667 60.4597 47.9667C62.1804 47.9667 66.1514 49.2231 68.0045 48.5949C70.5131 47.7445 70.6517 46.5847 71.7107 45.8308C72.5578 45.2277 73.7402 45.077 74.2256 45.077Z" stroke="#7B7B7B" stroke-width="1.03103"/>
<path d="M90.338 42.71C91.7324 37.4773 84.4123 21.7792 82.1465 16.3777C80.7522 14.0145 77.1619 9.59205 73.955 10.8074C70.748 12.0227 73.955 16.3777 76.0464 19.416C78.835 25.0876 75.5817 31.4569 73.6064 33.9326C74.4198 34.7203 76.395 36.8697 77.7893 39.1653C79.1836 41.461 79.1836 48.2241 79.0093 51.3187H86.3294C87.2009 50.1934 89.2226 46.8962 90.338 42.71Z" fill="#7B7B7B"/>
<path d="M37.5786 79.8218C38.4069 79.0376 40.312 77.3967 41.3059 77.1072C42.5484 76.7452 47.3407 76.5643 48.4056 76.5643C49.4706 76.5643 49.8255 77.1072 51.423 77.1072C53.0204 77.1072 53.3754 76.5643 54.4403 76.5643C55.5053 76.5643 60.2975 76.7452 61.54 77.1072C62.5339 77.3967 64.439 79.0376 65.2673 79.8218" stroke="#7B7B7B" stroke-width="1.03103"/>
<path d="M51.6893 24.1116C46.6218 24.7365 45.663 17.7065 38.4041 15.3631C32.7113 13.5254 28.4042 18.9805 26.4885 21.6121C25.8578 21.6641 23.9684 21.0809 23.7493 18.3314C23.4754 14.8945 27.0363 12.8636 29.3647 10.2078C31.693 7.55201 47.1696 3.49022 53.0589 3.17778C58.9483 2.86533 79.3555 13.8009 81.273 17.394C83.1904 20.9872 85.2448 28.0172 83.0535 24.1116C81.3079 21.0007 78.3313 21.4002 76.7735 21.6093L76.7533 21.6121C74.8815 22.7056 71.9596 22.7056 68.2617 21.6121C63.5147 20.2083 56.7569 23.4867 51.6893 24.1116Z" fill="#555555"/>
<path d="M52.0716 22.0111C47.1624 22.6159 46.2336 15.8126 39.2015 13.5449C33.6866 11.7664 29.5142 17.0456 27.6583 19.5922C27.0473 19.6426 25.217 19.0782 25.0047 16.4174C24.7393 13.0913 28.189 8.59134 30.4446 6.02123C32.7002 3.45112 45.712 0.0131378 51.4235 0.0131378C64.9217 0.0131399 78.8732 10.0677 80.7307 13.5449C82.5883 17.0221 84.5785 25.7907 82.4556 22.0111C80.7646 19.0005 77.881 19.3872 76.3718 19.5896L76.3523 19.5922C74.539 20.6505 71.7084 20.6505 68.126 19.5922C63.5274 18.2337 56.9808 21.4064 52.0716 22.0111Z" fill="#7B7B7B"/>
<path d="M5.81836 130.955C5.81836 120.706 14.1273 112.397 24.377 112.397H80.0984C90.348 112.397 98.657 120.706 98.657 130.955V195.635C98.657 205.884 90.348 214.193 80.0984 214.193H24.377C14.1273 214.193 5.81836 205.884 5.81836 195.635V130.955Z" fill="#071F2D"/>
<path d="M5.81836 127.055C5.81836 118.96 12.3813 112.397 20.4771 112.397H83.9982C92.094 112.397 98.657 118.96 98.657 127.055V199.535C98.657 207.631 92.094 214.193 83.9982 214.193H20.4771C12.3813 214.193 5.81836 207.631 5.81836 199.535V127.055Z" fill="#071F2D"/>
<path d="M51.4236 197.906L33.9146 112.397H66.8967L51.4236 197.906Z" fill="#E3E3E3"/>
<path d="M49.1833 120.54L46.5366 112.397H57.1235L54.4768 120.54H49.1833Z" fill="#66CDD9" stroke="#66CDD9" stroke-width="1.03103"/>
<path d="M56.3097 149.451L54.2737 121.355H49.3875L47.3516 149.451H56.3097Z" fill="#66CDD9" stroke="#66CDD9" stroke-width="1.03103"/>
<path d="M27.8062 112.397H35.9499L76.2614 214.193H68.1177L27.8062 112.397Z" fill="#F1D64A"/>
<path d="M20.4771 112.397H27.8064L68.1179 214.193H60.7886L20.4771 112.397Z" fill="#3C8519"/>
<path d="M35.9502 112.397H43.2796L83.5911 214.193H76.2617L35.9502 112.397Z" fill="#3C8519"/>
</svg>
