<svg width="157" height="46" viewBox="0 0 157 46" fill="none" xmlns="http://www.w3.org/2000/svg">
<rect width="157" height="46" rx="4.21622" fill="#F2F2F2"/>
<path d="M79.3409 25.0467C76.5931 25.0467 74.3229 27.1995 74.3229 30.1512C74.3229 33.0788 76.5693 35.2557 79.3412 35.2557C82.1127 35.2557 84.3589 33.1029 84.3589 30.1512C84.3589 27.1995 82.1127 25.0467 79.3409 25.0467ZM79.3409 33.2245C77.8351 33.2245 76.5217 31.9419 76.5217 30.1284C76.5217 28.2898 77.8362 27.0323 79.3409 27.0323C80.8456 27.0323 82.1601 28.2898 82.1601 30.1284C82.1601 31.9419 80.8456 33.2245 79.3409 33.2245ZM68.4207 25.0467C65.6489 25.0467 63.4024 27.1995 63.4024 30.1512C63.4024 33.0788 65.6489 35.2557 68.4207 35.2557C71.1923 35.2557 73.4388 33.1029 73.4388 30.1512C73.4388 27.1995 71.1923 25.0467 68.4205 25.0467H68.4207ZM68.4207 33.2245C66.9147 33.2245 65.6015 31.9419 65.6015 30.1284C65.6015 28.2898 66.916 27.0323 68.4207 27.0323C69.9265 27.0323 71.2399 28.2898 71.2399 30.1284C71.2399 31.9419 69.949 33.2245 68.4207 33.2245ZM55.4454 26.6193V28.7721H60.5108C60.3669 29.9816 59.9618 30.8767 59.364 31.482C58.6235 32.2317 57.4765 33.0547 55.4454 33.0547C52.3145 33.0547 49.9019 30.4905 49.9019 27.321C49.9019 24.1516 52.3159 21.5389 55.4454 21.5389C57.1413 21.5389 58.3608 22.2165 59.2687 23.0878L60.7734 21.563C59.5066 20.3297 57.8106 19.3864 55.4454 19.3864C51.1675 19.3864 47.583 22.9421 47.583 27.2728C47.583 31.6039 51.1675 35.1595 55.4454 35.1595C57.763 35.1595 59.4841 34.3858 60.8697 32.9334C62.2795 31.5061 62.7096 29.4977 62.7096 27.8771C62.7096 27.3693 62.6622 26.9094 62.5898 26.5221L55.4454 26.6193ZM108.541 28.2884C108.135 27.1512 106.845 25.0467 104.263 25.0467C101.682 25.0467 99.5557 27.1033 99.5557 30.1512C99.5557 33.0054 101.682 35.2557 104.503 35.2557C106.796 35.2557 108.111 33.8284 108.66 33.0054L106.964 31.8444C106.39 32.6915 105.626 33.2473 104.503 33.2473C103.379 33.2473 102.591 32.7395 102.089 31.6987L108.755 28.8686L108.541 28.2884ZM101.754 30.0068C101.707 28.0466 103.261 27.031 104.359 27.031C105.243 27.031 105.96 27.4665 106.222 28.12L101.754 30.0068ZM96.3301 34.9174H98.529V19.9662H96.3301V34.9174ZM92.7467 26.1838H92.6752C92.1737 25.5786 91.242 25.0467 90.0463 25.0467C87.5371 25.0467 85.2671 27.2969 85.2671 30.1512C85.2671 33.0054 87.5609 35.2318 90.0463 35.2318C91.2407 35.2318 92.1726 34.6997 92.6752 34.0703H92.7467V34.7961C92.7467 36.7563 91.7184 37.7958 90.0701 37.7958C88.7318 37.7958 87.895 36.8043 87.5609 35.9812L85.6499 36.8043C86.1988 38.1592 87.6572 39.8283 90.0701 39.8283C92.6504 39.8283 94.8254 38.2797 94.8254 34.5301V25.3608H92.7467V26.1838ZM90.2375 33.2245C88.7318 33.2245 87.4659 31.9419 87.4659 30.1525C87.4659 28.3631 88.7328 27.0561 90.2375 27.0561C91.7197 27.0561 92.9141 28.3631 92.9141 30.1525C92.9131 31.9178 91.7184 33.2245 90.2375 33.2245ZM118.792 19.9665H113.535V34.9174H115.734V29.2558H118.792C121.23 29.2558 123.619 27.4651 123.619 24.6112C123.619 21.7569 121.23 19.9662 118.792 19.9662V19.9665ZM118.864 27.1767H115.757V22.0467H118.864C120.488 22.0467 121.444 23.4258 121.444 24.6109C121.421 25.7722 120.49 27.1767 118.864 27.1767ZM132.389 25.0226C130.812 25.0226 129.163 25.7243 128.494 27.321L130.43 28.1441C130.861 27.321 131.625 27.0551 132.438 27.0551C133.585 27.0551 134.732 27.7565 134.756 28.9899V29.1356C134.349 28.8937 133.514 28.5544 132.462 28.5544C130.359 28.5544 128.232 29.7398 128.232 31.9178C128.232 33.9259 129.953 35.2077 131.864 35.2077C133.346 35.2077 134.158 34.5301 134.659 33.7323H134.731V34.8936H136.857V29.1594C136.833 26.5229 134.898 25.0223 132.389 25.0223V25.0226ZM132.127 33.2004C131.41 33.2004 130.406 32.8369 130.406 31.9429C130.406 30.7816 131.648 30.3461 132.723 30.3461C133.679 30.3461 134.133 30.5639 134.731 30.8539C134.563 32.233 133.393 33.2004 132.127 33.2004ZM144.528 25.3621L142.019 31.8213H141.947L139.344 25.3619H136.978L140.897 34.4096L138.674 39.4662H140.968L146.965 25.3619H144.528L144.528 25.3621ZM124.838 34.9174H127.037V19.9662H124.838V34.9174Z" fill="#333333"/>
<path d="M31.1819 27.7066C34.7444 25.6974 37.4454 24.1667 37.6782 24.0478C38.4227 23.6409 39.1919 22.5644 37.6782 21.7283C37.1894 21.4654 34.558 19.9821 31.1819 18.0695L26.502 22.9237L31.1817 27.7066H31.1819Z" fill="#FFD900"/>
<path d="M26.7135 22.8881L12.0459 37.9345C12.3899 37.9809 12.7787 37.888 13.2371 37.6315C14.1992 37.0957 24.398 31.4264 31.32 27.5545L26.7135 22.8881Z" fill="#F43249"/>
<path d="M26.7193 22.8881L31.32 18.1587C31.32 18.1587 14.2888 8.65265 13.2581 8.09174C12.8703 7.85589 12.4352 7.78616 12.0459 7.85589L26.7193 22.8878V22.8881Z" fill="#00EE76"/>
<path d="M26.502 22.8416L11.9328 7.83014C11.3415 7.97069 10.8418 8.50806 10.8418 9.6066V36.1457C10.8418 37.1518 11.2285 37.8763 11.9552 37.946L26.5018 22.8413L26.502 22.8416Z" fill="#00D3FF"/>
<path d="M46.7704 16.0116V7.44741H49.1879C49.933 7.44741 50.5918 7.61211 51.1643 7.9415C51.7368 8.27089 52.1779 8.73949 52.4877 9.3473C52.8014 9.95511 52.9602 10.6531 52.9642 11.4413V11.9883C52.9642 12.7961 52.8073 13.5039 52.4936 14.1117C52.1838 14.7195 51.7388 15.1862 51.1584 15.5116C50.582 15.8371 49.9095 16.0038 49.1409 16.0116H46.7704ZM47.8998 8.37677V15.0881H49.0879C49.9585 15.0881 50.6349 14.8176 51.1172 14.2764C51.6035 13.7353 51.8466 12.9647 51.8466 11.9648V11.4648C51.8466 10.4923 51.6172 9.73747 51.1584 9.20025C50.7035 8.65911 50.0565 8.38461 49.2173 8.37677H47.8998ZM55.6875 16.0116H54.5994V9.64728H55.6875V16.0116ZM54.5111 7.95915C54.5111 7.78269 54.5641 7.63368 54.6699 7.51212C54.7797 7.39056 54.9405 7.32977 55.1523 7.32977C55.364 7.32977 55.5248 7.39056 55.6346 7.51212C55.7444 7.63368 55.7993 7.78269 55.7993 7.95915C55.7993 8.13561 55.7444 8.28266 55.6346 8.4003C55.5248 8.51794 55.364 8.57676 55.1523 8.57676C54.9405 8.57676 54.7797 8.51794 54.6699 8.4003C54.5641 8.28266 54.5111 8.13561 54.5111 7.95915ZM61.1401 14.3235C61.1401 14.0294 61.0284 13.8019 60.8049 13.6412C60.5853 13.4765 60.199 13.3353 59.6461 13.2177C59.0971 13.1 58.6599 12.9588 58.3344 12.7942C58.0129 12.6295 57.7737 12.4334 57.6168 12.206C57.4639 11.9785 57.3874 11.7079 57.3874 11.3942C57.3874 10.8727 57.607 10.4315 58.0462 10.0708C58.4893 9.71002 59.054 9.52964 59.7402 9.52964C60.4618 9.52964 61.046 9.71591 61.4931 10.0884C61.944 10.461 62.1695 10.9374 62.1695 11.5178H61.0754C61.0754 11.2197 60.948 10.9629 60.6931 10.7472C60.4421 10.5315 60.1245 10.4237 59.7402 10.4237C59.3442 10.4237 59.0344 10.51 58.8109 10.6825C58.5874 10.8551 58.4756 11.0805 58.4756 11.3589C58.4756 11.6217 58.5795 11.8197 58.7873 11.953C58.9952 12.0864 59.3697 12.2138 59.9108 12.3354C60.4559 12.4569 60.897 12.602 61.2343 12.7706C61.5715 12.9392 61.8205 13.1431 61.9813 13.3824C62.146 13.6176 62.2283 13.9058 62.2283 14.247C62.2283 14.8156 62.0009 15.2724 61.546 15.6175C61.0911 15.9587 60.501 16.1292 59.7755 16.1292C59.2657 16.1292 58.8148 16.0391 58.4227 15.8587C58.0305 15.6783 57.7227 15.4273 57.4992 15.1058C57.2796 14.7803 57.1698 14.4293 57.1698 14.0529H58.258C58.2776 14.4176 58.4227 14.7078 58.6932 14.9234C58.9677 15.1352 59.3285 15.2411 59.7755 15.2411C60.1873 15.2411 60.5167 15.1587 60.7637 14.994C61.0147 14.8254 61.1401 14.6019 61.1401 14.3235ZM69.022 12.9C69.022 13.8686 68.8005 14.6489 68.3574 15.2411C67.9142 15.8332 67.3143 16.1292 66.5575 16.1292C65.785 16.1292 65.1772 15.8842 64.734 15.394V18.4585H63.6459V9.64728H64.6399L64.6929 10.3531C65.136 9.80414 65.7516 9.52964 66.5398 9.52964C67.3045 9.52964 67.9084 9.81786 68.3515 10.3943C68.7985 10.9707 69.022 11.7726 69.022 12.8V12.9ZM67.9339 12.7765C67.9339 12.0589 67.7809 11.4923 67.4751 11.0766C67.1692 10.6609 66.7496 10.4531 66.2163 10.4531C65.5575 10.4531 65.0634 10.7453 64.734 11.3295V14.3705C65.0595 14.9509 65.5575 15.2411 66.2281 15.2411C66.7496 15.2411 67.1633 15.0352 67.4692 14.6235C67.779 14.2078 67.9339 13.5921 67.9339 12.7765ZM70.122 12.7706C70.122 12.1471 70.2435 11.5864 70.4866 11.0884C70.7337 10.5904 71.0748 10.2061 71.5101 9.9355C71.9493 9.66493 72.4493 9.52964 73.01 9.52964C73.8766 9.52964 74.5766 9.82962 75.1099 10.4296C75.6471 11.0296 75.9157 11.8275 75.9157 12.8236V12.9C75.9157 13.5196 75.7961 14.0764 75.5569 14.5705C75.3216 15.0607 74.9824 15.443 74.5393 15.7175C74.1001 15.992 73.5943 16.1292 73.0218 16.1292C72.1591 16.1292 71.4591 15.8293 70.9219 15.2293C70.3886 14.6293 70.122 13.8353 70.122 12.8471V12.7706ZM71.216 12.9C71.216 13.6059 71.3787 14.1725 71.7042 14.5999C72.0336 15.0273 72.4728 15.2411 73.0218 15.2411C73.5747 15.2411 74.0139 15.0254 74.3394 14.594C74.6648 14.1588 74.8276 13.551 74.8276 12.7706C74.8276 12.0726 74.6609 11.508 74.3276 11.0766C73.9982 10.6413 73.559 10.4237 73.01 10.4237C72.4728 10.4237 72.0395 10.6374 71.7101 11.0648C71.3807 11.4923 71.216 12.104 71.216 12.9ZM78.3097 9.64728L78.345 10.4472C78.8312 9.83551 79.4665 9.52964 80.2508 9.52964C81.5958 9.52964 82.2742 10.2884 82.2859 11.806V16.0116H81.1978V11.8001C81.1938 11.3413 81.088 11.0021 80.8801 10.7825C80.6762 10.5629 80.3566 10.4531 79.9214 10.4531C79.5684 10.4531 79.2587 10.5472 78.992 10.7355C78.7254 10.9237 78.5175 11.1707 78.3685 11.4766V16.0116H77.2803V9.64728H78.3097ZM85.1093 16.0116H84.0152V9.64728H85.1093V16.0116ZM85.1211 6.98274H86.4386L84.8622 8.71204H83.9858L85.1211 6.98274ZM89.0032 14.5352L90.5795 9.64728H91.6912L89.409 16.0116H88.5797L86.2739 9.64728H87.3856L89.0032 14.5352ZM95.2969 16.1292C94.4342 16.1292 93.7323 15.8469 93.1912 15.2822C92.65 14.7136 92.3794 13.9549 92.3794 13.0059V12.8059C92.3794 12.1746 92.499 11.6119 92.7382 11.1178C92.9814 10.6198 93.3186 10.2316 93.7499 9.95315C94.1852 9.67081 94.6558 9.52964 95.1616 9.52964C95.989 9.52964 96.6321 9.80217 97.0909 10.3472C97.5497 10.8923 97.7791 11.6727 97.7791 12.6883V13.1412H93.4676C93.4833 13.7686 93.6656 14.2764 94.0146 14.6646C94.3676 15.0489 94.8146 15.2411 95.3557 15.2411C95.74 15.2411 96.0655 15.1626 96.3321 15.0058C96.5988 14.8489 96.8321 14.6411 97.0321 14.3823L97.6968 14.8999C97.1635 15.7195 96.3635 16.1292 95.2969 16.1292ZM95.1616 10.4237C94.7224 10.4237 94.3538 10.5845 94.0558 10.906C93.7578 11.2237 93.5735 11.6707 93.5029 12.2471H96.6909V12.1648C96.6596 11.6119 96.5106 11.1844 96.2439 10.8825C95.9773 10.5766 95.6165 10.4237 95.1616 10.4237ZM100.226 16.0116H99.1379V6.97686H100.226V16.0116ZM105.99 9.64728L106.026 10.4472C106.512 9.83551 107.147 9.52964 107.931 9.52964C109.276 9.52964 109.955 10.2884 109.967 11.806V16.0116H108.878V11.8001C108.875 11.3413 108.769 11.0021 108.561 10.7825C108.357 10.5629 108.037 10.4531 107.602 10.4531C107.249 10.4531 106.939 10.5472 106.673 10.7355C106.406 10.9237 106.198 11.1707 106.049 11.4766V16.0116H104.961V9.64728H105.99ZM111.319 12.7706C111.319 12.1471 111.441 11.5864 111.684 11.0884C111.931 10.5904 112.272 10.2061 112.708 9.9355C113.147 9.66493 113.647 9.52964 114.208 9.52964C115.074 9.52964 115.774 9.82962 116.307 10.4296C116.845 11.0296 117.113 11.8275 117.113 12.8236V12.9C117.113 13.5196 116.994 14.0764 116.754 14.5705C116.519 15.0607 116.18 15.443 115.737 15.7175C115.298 15.992 114.792 16.1292 114.219 16.1292C113.357 16.1292 112.657 15.8293 112.119 15.2293C111.586 14.6293 111.319 13.8353 111.319 12.8471V12.7706ZM112.414 12.9C112.414 13.6059 112.576 14.1725 112.902 14.5999C113.231 15.0273 113.67 15.2411 114.219 15.2411C114.772 15.2411 115.211 15.0254 115.537 14.594C115.862 14.1588 116.025 13.551 116.025 12.7706C116.025 12.0726 115.858 11.508 115.525 11.0766C115.196 10.6413 114.757 10.4237 114.208 10.4237C113.67 10.4237 113.237 10.6374 112.908 11.0648C112.578 11.4923 112.414 12.104 112.414 12.9Z" fill="#333333"/>
</svg>
