<svg width="509" height="379" viewBox="0 0 509 379" fill="none" xmlns="http://www.w3.org/2000/svg">
<rect x="307.76" y="121.273" width="31.3027" height="29.3463" fill="#F6C09D"/>
<path fill-rule="evenodd" clip-rule="evenodd" d="M339.062 134.426C334.481 136.653 329.336 137.903 323.9 137.903H321.943C316.891 137.903 312.09 136.824 307.76 134.884V126.164H339.062V134.426Z" fill="#DF6664"/>
<path fill-rule="evenodd" clip-rule="evenodd" d="M287.697 46.321C287.697 27.1421 303.245 11.5945 322.423 11.5945H324.38C343.559 11.5945 359.106 27.1421 359.106 46.321V70.2871C359.106 70.2871 359.106 70.2871 359.106 70.2871C364.509 70.2871 368.888 74.6667 368.888 80.0692C368.888 85.4716 364.509 89.8512 359.106 89.8512C359.106 89.8512 359.106 89.8512 359.106 89.8512V97.1878C359.106 116.367 343.559 131.914 324.38 131.914H322.424C303.245 131.914 287.697 116.367 287.697 97.1878V89.8512C282.295 89.8512 277.915 85.4716 277.915 80.0692C277.915 74.6667 282.295 70.2871 287.697 70.2871V46.321Z" fill="#F6C09D"/>
<path fill-rule="evenodd" clip-rule="evenodd" d="M309.483 76.4433C310.224 75.8153 310.694 74.8777 310.694 73.8302C310.694 71.9394 309.161 70.4065 307.27 70.4065C305.38 70.4065 303.847 71.9394 303.847 73.8302C303.847 74.8565 304.298 75.7773 305.013 76.4048C305.61 75.8992 306.382 75.5942 307.226 75.5942C308.09 75.5942 308.88 75.9147 309.483 76.4433Z" fill="#4C150E"/>
<path fill-rule="evenodd" clip-rule="evenodd" d="M341.797 76.3576C342.538 75.7296 343.009 74.792 343.009 73.7446C343.009 71.8537 341.476 70.3208 339.585 70.3208C337.694 70.3208 336.161 71.8537 336.161 73.7446C336.161 74.7709 336.613 75.6917 337.328 76.3193C337.925 75.8135 338.697 75.5085 339.54 75.5085C340.405 75.5085 341.195 75.829 341.797 76.3576Z" fill="#4C150E"/>
<rect x="319.498" y="68.45" width="9.78209" height="23.477" rx="4.89104" fill="#DF6664"/>
<rect x="318.52" y="65.5154" width="9.78209" height="23.477" rx="4.89104" fill="#F6C09D"/>
<path d="M325.854 112.148C321.414 112.227 312.609 107.12 309.59 104.461C319.217 108.531 333.757 105.491 338.678 105.077C336.466 106.389 330.295 112.07 325.854 112.148Z" fill="#DF6664"/>
<path fill-rule="evenodd" clip-rule="evenodd" d="M333.455 108.34C329.07 108.915 322.713 109.681 316.775 109.037C314.082 107.684 311.585 106.059 310.198 104.837C317.824 108.062 328.667 106.631 334.864 105.813C336.164 105.642 337.261 105.497 338.079 105.428C337.713 105.645 337.213 105.969 336.614 106.357C335.736 106.926 334.646 107.632 333.455 108.34Z" fill="#E3E3E3"/>
<path d="M305.043 31.9685C283.762 30.3812 286.703 58.7735 287.034 76.4498C285.822 71.4594 283.135 57.8713 282.077 43.4417C280.755 25.4046 294.172 15.6264 301.165 12.9129C305.438 11.2551 346.007 -3.18639 360.012 30.1713C363.646 38.829 363.199 65.8078 358.573 76.4498C358.838 38.2113 353.779 32.8388 347.188 31.9685C345.989 31.9685 339.573 32.872 335.608 35.325C330.651 38.3913 313.75 32.6179 305.043 31.9685Z" fill="#4B2C28"/>
<path d="M270.245 163.235C270.245 153.836 277.865 146.216 287.264 146.216H361.81C371.209 146.216 378.829 153.836 378.829 163.235V248.089C378.829 257.488 371.209 265.107 361.81 265.107H287.264C277.865 265.107 270.245 257.488 270.245 248.089V163.235Z" fill="#F2994A"/>
<path d="M270.245 163.337C270.245 153.882 277.921 146.216 287.39 146.216H361.684C371.153 146.216 378.829 153.882 378.829 163.337V247.987C378.829 257.442 371.153 265.107 361.684 265.107H287.39C277.921 265.107 270.245 257.442 270.245 247.987V163.337Z" fill="#F2994A"/>
<path d="M324.057 164.913C334.714 164.913 343.353 156.328 343.353 145.737H304.762C304.762 156.328 313.401 164.913 324.057 164.913Z" fill="#F6C09D"/>
<rect x="437.931" y="121.273" width="31.3027" height="29.3463" fill="#F6C09D"/>
<path fill-rule="evenodd" clip-rule="evenodd" d="M469.233 134.426C464.652 136.653 459.507 137.903 454.07 137.903H452.114C447.062 137.903 442.261 136.824 437.931 134.884V126.164H469.233V134.426Z" fill="#DF6664"/>
<path fill-rule="evenodd" clip-rule="evenodd" d="M417.868 46.321C417.868 27.1421 433.416 11.5945 452.594 11.5945H454.551C473.73 11.5945 489.277 27.1421 489.277 46.321V70.2871C489.277 70.2871 489.277 70.2871 489.277 70.2871C494.68 70.2871 499.059 74.6667 499.059 80.0692C499.059 85.4716 494.68 89.8512 489.277 89.8512C489.277 89.8512 489.277 89.8512 489.277 89.8512V97.1878C489.277 116.367 473.73 131.914 454.551 131.914H452.594C433.416 131.914 417.868 116.367 417.868 97.1878V89.8512C412.465 89.8512 408.086 85.4716 408.086 80.0692C408.086 74.6667 412.465 70.2871 417.868 70.2871V46.321Z" fill="#F6C09D"/>
<path fill-rule="evenodd" clip-rule="evenodd" d="M439.654 76.4433C440.395 75.8153 440.865 74.8777 440.865 73.8302C440.865 71.9394 439.332 70.4065 437.441 70.4065C435.55 70.4065 434.018 71.9394 434.018 73.8302C434.018 74.8565 434.469 75.7773 435.184 76.4048C435.781 75.8992 436.553 75.5942 437.397 75.5942C438.261 75.5942 439.051 75.9147 439.654 76.4433Z" fill="#4C150E"/>
<path fill-rule="evenodd" clip-rule="evenodd" d="M471.968 76.3576C472.709 75.7296 473.179 74.792 473.179 73.7446C473.179 71.8537 471.647 70.3208 469.756 70.3208C467.865 70.3208 466.332 71.8537 466.332 73.7446C466.332 74.7709 466.784 75.6917 467.499 76.3193C468.096 75.8135 468.868 75.5085 469.711 75.5085C470.576 75.5085 471.366 75.829 471.968 76.3576Z" fill="#4C150E"/>
<rect x="449.669" y="68.45" width="9.78209" height="23.477" rx="4.89104" fill="#DF6664"/>
<rect x="448.69" y="65.5154" width="9.78209" height="23.477" rx="4.89104" fill="#F6C09D"/>
<path d="M456.025 112.148C451.585 112.227 442.78 107.12 439.761 104.461C449.388 108.531 463.928 105.491 468.849 105.077C466.637 106.389 460.466 112.07 456.025 112.148Z" fill="#DF6664"/>
<path fill-rule="evenodd" clip-rule="evenodd" d="M463.626 108.34C459.24 108.915 452.884 109.681 446.946 109.037C444.253 107.684 441.756 106.059 440.369 104.837C447.995 108.062 458.838 106.631 465.034 105.813C466.335 105.642 467.431 105.497 468.25 105.428C467.884 105.645 467.384 105.969 466.785 106.357C465.907 106.926 464.817 107.632 463.626 108.34Z" fill="#E3E3E3"/>
<path d="M435.213 31.9685C413.933 30.3812 416.874 58.7735 417.205 76.4498C415.993 71.4594 413.306 57.8713 412.248 43.4417C410.926 25.4046 424.343 15.6264 431.336 12.9129C435.609 11.2551 476.178 -3.18639 490.182 30.1713C493.817 38.829 493.37 65.8078 488.744 76.4498C489.009 38.2113 483.95 32.8388 477.359 31.9685C476.16 31.9685 469.744 32.872 465.779 35.325C460.822 38.3913 443.92 32.6179 435.213 31.9685Z" fill="#4B2C28"/>
<path d="M400.416 163.235C400.416 153.836 408.036 146.216 417.435 146.216H491.981C501.38 146.216 509 153.836 509 163.235V248.089C509 257.488 501.38 265.107 491.981 265.107H417.435C408.036 265.107 400.416 257.488 400.416 248.089V163.235Z" fill="#31D3C8"/>
<path d="M400.416 163.337C400.416 153.882 408.092 146.216 417.561 146.216H491.855C501.324 146.216 509 153.882 509 163.337V247.987C509 257.442 501.324 265.107 491.855 265.107H417.561C408.092 265.107 400.416 257.442 400.416 247.987V163.337Z" fill="#31D3C8"/>
<path d="M454.228 164.913C464.885 164.913 473.524 156.328 473.524 145.737H434.933C434.933 156.328 443.572 164.913 454.228 164.913Z" fill="#F6C09D"/>
<path fill-rule="evenodd" clip-rule="evenodd" d="M161.364 18.463C154.443 18.463 148.833 24.0733 148.833 30.994V74.4182C148.516 74.3867 148.194 74.3706 147.869 74.3706C142.545 74.3706 138.229 78.6862 138.229 84.0099C138.229 89.3335 142.545 93.6491 147.869 93.6491C148.194 93.6491 148.516 93.633 148.833 93.6015V118.711C148.833 125.632 154.443 131.242 161.364 131.242H208.596C215.517 131.242 221.127 125.632 221.127 118.711V93.6491C226.451 93.6491 230.766 89.3335 230.766 84.0099C230.766 78.6863 226.451 74.3707 221.127 74.3706V30.994C221.127 24.0733 215.517 18.463 208.596 18.463H161.364Z" fill="#F1A761"/>
<circle cx="168.593" cy="80.6362" r="3.37374" fill="#071F2D"/>
<circle cx="200.403" cy="80.6362" r="3.37374" fill="#071F2D"/>
<rect x="180.642" y="75.3345" width="9.63926" height="23.1342" rx="4.81963" fill="#CA5D22"/>
<rect x="179.678" y="72.4429" width="9.63926" height="23.1342" rx="4.81963" fill="#F1A761"/>
<rect x="169.075" y="137.99" width="30.8456" height="14.4589" fill="#F1A761"/>
<rect x="169.075" y="131.242" width="30.8456" height="6.74748" fill="#CA5D22"/>
<path d="M171.838 108.81C175.552 111.121 188.746 120.002 196.391 111.858C197.571 110.601 184.493 108.531 171.838 108.81Z" fill="#B94B26"/>
<path fill-rule="evenodd" clip-rule="evenodd" d="M172.405 109.179C172.213 109.059 172.037 108.948 171.878 108.849C184.533 108.57 197.611 110.641 196.431 111.897C195.967 112.392 195.483 112.823 194.981 113.197C192.165 112.195 184.047 111.117 175.397 110.993C174.193 110.305 173.171 109.661 172.405 109.179Z" fill="#E3E3E3"/>
<path d="M152.068 66.3683C154.106 59.7104 148.019 47.3866 152.068 51.9116C159.15 59.8271 202.614 36.1164 210.882 41.5327C219.13 46.9354 217.356 51.5001 215.1 57.305L215.083 57.3485C213.272 62.0091 216.443 75.8632 219.037 81.319C220.906 81.319 234.344 63.938 235.594 42.2744C237.043 17.1556 218.166 -7.29225 198.526 4.46489C141.566 -14.0175 133.287 29.9327 133.287 44.3748C133.287 54.785 142.546 78.8192 146.536 78.8192C147.526 77.6171 150.03 73.0262 152.068 66.3683Z" fill="#071F2D"/>
<path d="M130.171 162.037C130.171 152.637 137.79 145.018 147.19 145.018H221.736C231.135 145.018 238.755 152.637 238.755 162.037V246.89C238.755 256.289 231.135 263.909 221.736 263.909H147.19C137.79 263.909 130.171 256.289 130.171 246.89V162.037Z" fill="#219653"/>
<path d="M130.171 162.138C130.171 152.683 137.847 145.018 147.316 145.018H221.61C231.079 145.018 238.755 152.683 238.755 162.138V246.788C238.755 256.244 231.079 263.909 221.61 263.909H147.316C137.847 263.909 130.171 256.244 130.171 246.788V162.138Z" fill="#219653"/>
<path d="M183.983 163.714C194.64 163.714 203.279 155.129 203.279 144.539H164.688C164.688 155.129 173.327 163.714 183.983 163.714Z" fill="#F1A761"/>
<rect x="37.7549" y="120.945" width="31.3027" height="29.3463" fill="#F6C09D"/>
<path fill-rule="evenodd" clip-rule="evenodd" d="M69.0576 134.099C64.4762 136.326 59.3317 137.575 53.8955 137.575H51.9391C46.8864 137.575 42.0857 136.496 37.7549 134.555V125.836H69.0576V134.099Z" fill="#DF6664"/>
<path fill-rule="evenodd" clip-rule="evenodd" d="M17.2127 46.1123C17.2127 26.9334 32.7602 11.3858 51.9391 11.3858H53.8955C73.0743 11.3858 88.6219 26.9334 88.6219 46.1122V70.0784C88.622 70.0784 88.622 70.0784 88.622 70.0784C94.0245 70.0784 98.4041 74.4579 98.4041 79.8604C98.4041 85.2629 94.0245 89.6425 88.622 89.6425C88.622 89.6425 88.622 89.6425 88.6219 89.6425V96.9791C88.6219 116.158 73.0744 131.706 53.8955 131.706H51.9391C32.7603 131.706 17.2127 116.158 17.2127 96.9791V89.6425C11.8102 89.6425 7.43066 85.2629 7.43066 79.8604C7.43066 74.458 11.8102 70.0784 17.2127 70.0784V46.1123Z" fill="#F6C09D"/>
<circle cx="37.2665" cy="73.5021" r="3.42373" fill="#4C150E"/>
<circle cx="69.5468" cy="73.5021" r="3.42373" fill="#4C150E"/>
<rect x="49.4941" y="68.1219" width="9.78209" height="23.477" rx="4.89104" fill="#DF6664"/>
<rect x="48.5156" y="65.1873" width="9.78209" height="23.477" rx="4.89104" fill="#F6C09D"/>
<path d="M54.1937 112.011C49.7531 112.09 42.6043 106.792 39.585 104.133C49.2118 108.203 61.4603 108.393 66.3812 107.979C64.169 109.291 58.6344 111.933 54.1937 112.011Z" fill="#DF6664"/>
<path fill-rule="evenodd" clip-rule="evenodd" d="M60.6903 110.549C56.4548 110.469 50.9268 109.974 45.5974 108.572C43.3464 107.12 41.3058 105.508 40.0293 104.383C49.3297 108.316 61.1628 108.499 65.9168 108.099C64.8238 108.747 62.8915 109.731 60.6903 110.549Z" fill="#E3E3E3"/>
<path d="M42.6386 28.6841C21.3585 27.0969 16.6993 58.4454 17.0297 76.1217C15.8181 71.1314 13.1305 57.5433 12.0732 43.1136C10.7514 25.0766 24.6297 21.6497 35.0385 10.6471C43.3655 1.84501 60.0966 -0.115022 67.4213 0.00522549C66.2097 1.32794 65.5709 5.30812 72.7083 10.6471C81.6301 17.3208 91.0475 20.0264 94.6823 28.6841C98.3171 37.3419 93.1954 65.4797 88.5692 76.1217C88.8336 37.8833 74.5808 29.7664 67.4213 28.6841C67.8619 30.9087 69.5691 32.5439 65.6039 34.9969C60.6473 38.0632 50.5691 38.0634 42.6386 28.6841Z" fill="#4C150E"/>
<path d="M17.6768 78.2514C14.6186 76.7815 14.2792 68.4506 13.7735 65.1256C23.6881 61.4534 39.4371 63.7579 46.0722 65.3691C46.5063 69.4671 46.6908 77.9739 43.9561 79.2173C40.5377 80.7716 21.4997 80.0888 17.6768 78.2514Z" fill="url(#paint0_linear)" stroke="#7B7B7B" stroke-width="0.325306"/>
<path d="M12.6348 64.7513C17.3609 62.9998 31.4007 60.775 47.4419 65.0765C49.0686 64.5343 53.2006 63.6126 57.3645 64.9139C73.4056 60.6125 87.7049 62.9293 92.4309 64.6808" stroke="#071F2D" stroke-width="1.30122"/>
<path d="M87.3886 78.1809C90.4468 76.7109 90.7862 68.38 91.2919 65.055C81.3773 61.3829 65.6284 63.6874 58.9932 65.2986C58.5591 69.3966 58.3747 77.9034 61.1094 79.1468C64.5277 80.7011 83.5658 80.0183 87.3886 78.1809Z" fill="url(#paint1_linear)" stroke="#7B7B7B" stroke-width="0.325306"/>
<path d="M0 163.235C0 153.836 7.6195 146.217 17.0186 146.217H91.5651C100.964 146.217 108.584 153.836 108.584 163.235V248.089C108.584 257.488 100.964 265.107 91.5651 265.107H17.0186C7.61951 265.107 0 257.488 0 248.089V163.235Z" fill="#2F80ED"/>
<path d="M0 163.337C0 153.882 7.67599 146.217 17.1448 146.217H91.4389C100.908 146.217 108.584 153.882 108.584 163.337V247.987C108.584 257.442 100.908 265.107 91.4389 265.107H17.1448C7.67599 265.107 0 257.442 0 247.987V163.337Z" fill="#2F80ED"/>
<path d="M53.8124 164.913C64.4691 164.913 73.1082 156.328 73.1082 145.737H34.5166C34.5166 156.328 43.1556 164.913 53.8124 164.913Z" fill="#F6C09D"/>
<path d="M405.325 140.498C409.472 139.41 418.555 139.416 421.705 148.15C416.004 143.671 408.409 141.183 405.325 140.498Z" fill="#66CDD9"/>
<path d="M420.822 124.878C397.951 120.492 390.843 137.213 390.148 146.121C391.836 156.705 397.474 183.035 406.528 203.684C415.581 224.334 450.801 207.263 467.28 196.146C462.317 195.918 450.543 194.045 443.158 188.38C433.926 181.299 449.412 130.36 420.822 124.878Z" fill="#CA5D22"/>
<rect x="377.621" y="241.489" width="33.1187" height="31.0487" fill="#F6C09D"/>
<path d="M410.74 250.928V238.385H394.18H377.621V251.635C383.675 255.674 390.334 255.873 394.18 255.873C398.246 255.873 404.36 255.395 410.74 250.928Z" fill="#DF6664"/>
<path fill-rule="evenodd" clip-rule="evenodd" d="M393.662 142.133C374.514 142.133 358.991 157.656 358.991 176.804V189.741C358.991 189.741 358.991 189.741 358.991 189.741C353.275 189.741 348.642 194.375 348.642 200.091C348.642 205.807 353.275 210.44 358.991 210.44C358.991 210.44 358.991 210.44 358.991 210.44V216.132C358.991 237.03 380.228 248.467 393.516 248.467C406.804 248.467 428.333 239.862 428.333 218.746V210.44C434.049 210.44 438.683 205.807 438.683 200.091C438.683 194.375 434.049 189.741 428.333 189.741V176.804C428.333 157.656 412.811 142.133 393.662 142.133Z" fill="#F6C09D"/>
<rect x="390.04" y="193.881" width="10.3496" height="24.839" rx="5.17479" fill="#DF6664"/>
<rect x="389.005" y="190.776" width="10.3496" height="24.839" rx="5.17479" fill="#F6C09D"/>
<path d="M414.878 199.573C414.878 201.574 413.257 203.196 411.256 203.196C409.256 203.196 407.634 201.574 407.634 199.573C407.634 197.573 409.256 195.951 411.256 195.951C413.257 195.951 414.878 197.573 414.878 199.573Z" fill="#126D81"/>
<path d="M380.725 199.573C380.725 201.574 379.103 203.196 377.103 203.196C375.102 203.196 373.48 201.574 373.48 199.573C373.48 197.573 375.102 195.951 377.103 195.951C379.103 195.951 380.725 197.573 380.725 199.573Z" fill="#126D81"/>
<path d="M395.198 236.303C388.596 237.162 383.193 230.36 381.317 226.852C387.961 224.069 401.467 225.594 408.329 226.574C406.704 229.366 401.801 235.444 395.198 236.303Z" fill="#DF6664"/>
<path fill-rule="evenodd" clip-rule="evenodd" d="M404.456 228.674C398.521 228.125 390.101 227.72 384.572 228.613C383.437 227.842 382.56 227.064 382.008 226.463C388.225 224.673 401.554 225.717 407.441 226.463C406.861 227.042 405.84 227.858 404.456 228.674Z" fill="#E3E3E3"/>
<path d="M356.485 207.172C356.485 207.172 359.1 200.636 359.1 193.936C359.1 187.236 353.871 178.902 357.793 161.743C361.814 144.147 380.886 138.702 392.927 138.702C406.163 138.702 424.911 145.153 428.714 158.148C436.558 184.948 427.734 200.145 426.214 213.545C426.089 211.767 426.446 192.818 426.214 191.321C423.529 173.994 425.797 175.431 422.488 161.743C379.029 175.492 368.905 165.502 363.512 170.241C357.915 175.16 368.905 194.262 356.485 207.172Z" fill="#F99723"/>
<path d="M357.544 196.119L357.567 196.714L358.155 196.805L361.494 197.32C361.568 198.587 361.804 200.329 362.303 202.065C362.883 204.079 363.851 206.204 365.449 207.514C366.488 208.366 368.211 208.943 370.14 209.311C372.101 209.684 374.389 209.861 376.658 209.84C378.925 209.819 381.198 209.599 383.127 209.165C385.02 208.739 386.71 208.08 387.678 207.088C388.437 206.311 389.046 205.102 389.545 203.77C390.05 202.418 390.47 200.859 390.814 199.311C391.457 196.414 391.847 193.501 392.027 191.952C392.178 191.858 392.425 191.732 392.769 191.62C393.285 191.451 393.959 191.333 394.724 191.387L394.775 191.391L394.826 191.387C395.594 191.333 396.418 191.451 397.097 191.632C397.434 191.721 397.722 191.822 397.938 191.917C397.992 191.94 398.038 191.962 398.077 191.981C398.098 192.181 398.121 192.403 398.146 192.646C398.312 194.267 398.57 196.786 399.015 199.281C399.291 200.829 399.643 202.391 400.098 203.746C400.546 205.082 401.121 206.302 401.889 207.088C402.857 208.08 404.547 208.739 406.44 209.165C408.368 209.599 410.642 209.819 412.909 209.84C415.178 209.861 417.466 209.684 419.427 209.311C421.356 208.943 423.079 208.366 424.118 207.514C425.716 206.204 426.684 204.079 427.264 202.065C427.763 200.329 427.998 198.587 428.073 197.32L431.412 196.805L432 196.714L432.023 196.119L432.28 189.501L432.308 188.789L431.596 188.751L427.258 188.525C422.876 187.259 411.445 185.703 399.632 189.295L399.455 189.349L399.326 189.481C399.013 189.801 398.728 190.13 398.513 190.393C398.102 190.263 397.592 190.134 397.079 190.029C396.31 189.872 395.439 189.747 394.775 189.763C394.111 189.747 393.244 189.872 392.479 190.029C391.968 190.135 391.462 190.263 391.054 190.392C390.839 190.13 390.554 189.801 390.241 189.481L390.112 189.349L389.935 189.295C378.122 185.703 366.691 187.259 362.308 188.525L357.971 188.751L357.259 188.789L357.287 189.501L357.544 196.119Z" stroke="black" stroke-width="1.4447"/>
<path d="M358.859 196.28L358.881 196.818L359.413 196.906L361.269 197.212C361.34 198.42 361.569 200.206 362.057 201.986C362.617 204.032 363.559 206.221 365.135 207.431C366.144 208.205 367.894 208.74 369.879 209.09C371.899 209.446 374.276 209.63 376.636 209.632C378.995 209.635 381.358 209.456 383.346 209.079C384.339 208.89 385.253 208.649 386.03 208.349C386.801 208.053 387.478 207.683 387.965 207.217C388.725 206.488 389.287 205.283 389.722 203.957C390.165 202.608 390.508 201.032 390.778 199.471C391.188 197.096 391.436 194.693 391.599 193.118C391.629 192.825 391.657 192.561 391.682 192.331C392.005 192.24 392.455 192.14 392.956 192.056C393.673 191.934 394.412 191.858 394.917 191.87L394.947 191.872L394.978 191.87C395.471 191.858 396.191 191.931 396.896 192.047C397.304 192.141 397.665 192.258 397.942 192.37C398.051 192.414 398.143 192.456 398.218 192.494C398.244 192.733 398.274 193.013 398.306 193.327C398.469 194.879 398.719 197.258 399.134 199.611C399.404 201.138 399.747 202.68 400.19 204.004C400.627 205.306 401.189 206.49 401.947 207.217C402.891 208.122 404.59 208.711 406.506 209.086C408.46 209.469 410.778 209.654 413.093 209.658C415.408 209.662 417.741 209.485 419.727 209.134C421.681 208.789 423.407 208.257 424.415 207.483C425.991 206.273 426.933 204.084 427.493 202.039C427.98 200.264 428.209 198.483 428.28 197.275L430.736 196.92L431.28 196.842L431.303 196.293L431.554 190.238L431.581 189.582L430.925 189.55L426.677 189.342C422.413 188.187 411.253 186.761 399.718 190.044L399.56 190.089L399.442 190.202C399.123 190.508 398.834 190.821 398.621 191.066C398.206 190.947 397.678 190.835 397.152 190.747L397.152 190.747L397.151 190.747C396.486 190.597 395.713 190.5 394.948 190.545C394.052 190.49 393.134 190.567 392.388 190.702C392.009 190.77 391.662 190.856 391.376 190.952C391.33 190.968 391.283 190.985 391.235 191.003C391.028 190.768 390.762 190.482 390.47 190.202L390.351 190.089L390.193 190.044C378.659 186.761 367.498 188.187 363.235 189.342L359.237 189.537L358.581 189.57L358.608 190.226L358.859 196.28Z" fill="url(#paint2_linear)" stroke="black" stroke-width="1.3241"/>
<path d="M340.768 276.373C340.768 266.974 348.387 259.355 357.786 259.355H432.333C441.732 259.355 449.351 266.974 449.351 276.373V361.227C449.351 370.626 441.732 378.245 432.333 378.245H357.786C348.387 378.245 340.768 370.626 340.768 361.227V276.373Z" fill="#F2C94C"/>
<path d="M340.768 276.475C340.768 267.02 348.444 259.355 357.912 259.355H432.206C441.675 259.355 449.351 267.02 449.351 276.475V361.125C449.351 370.58 441.675 378.245 432.206 378.245H357.912C348.444 378.245 340.768 370.58 340.768 361.125V276.475Z" fill="#F2C94C"/>
<path d="M394.58 278.051C405.237 278.051 413.876 269.466 413.876 258.875H375.284C375.284 269.466 383.923 278.051 394.58 278.051Z" fill="#F6C09D"/>
<path d="M67.3336 134.895C71.2185 132.079 88.9945 134.895 88.9945 134.895V159.673L95.3515 170.824L88.9945 182.988L81.578 198.644V213.849L100.649 231.87L101.425 246.318L100.649 268.587L110.655 283.229C110.655 283.229 88.9945 290.55 84.1679 290.325C79.3413 290.1 55.6791 275.232 51.912 278.161C48.1449 281.089 38.1386 273.092 32.3702 268.587C26.6018 264.082 26.0132 253.833 26.0132 253.833C26.0132 253.833 24.4828 240.43 26.0132 236.15C27.5436 231.87 38.1386 217.228 38.1386 213.398C38.1386 209.569 36.6082 195.152 38.1386 191.097C39.6689 187.043 51.912 178.37 51.912 174.428C51.912 170.486 54.031 164.854 55.6791 162.264C57.3273 159.673 63.9197 150.325 64.1551 147.059C64.3906 143.792 63.4488 137.71 67.3336 134.895Z" fill="url(#paint3_linear)"/>
<path d="M156.053 133.643H133.354V158.413L126.693 169.56L133.354 181.72L141.126 197.37V212.57L121.141 230.584L113.469 252.54L121.141 267.289L110.655 281.926C110.655 281.926 131.874 296.113 138.412 289.019C144.951 281.926 163.332 275.283 172.214 276.859C181.097 278.436 186.648 271.68 192.693 267.289C198.738 262.898 199.354 252.54 199.354 252.54V234.863C195.119 228.971 186.648 216.173 186.648 212.119V189.826L172.214 173.163L168.267 161.003L159.384 145.803L156.053 133.643Z" fill="url(#paint4_linear)"/>
<rect x="94.0029" y="236.18" width="34.2266" height="32.0874" fill="#F6C09D"/>
<path d="M128.23 245.935V232.972H111.116H94.0029V246.666C100.259 250.839 106.607 253.294 110.581 253.294C114.783 253.294 121.636 250.551 128.23 245.935Z" fill="#DF6664"/>
<path fill-rule="evenodd" clip-rule="evenodd" d="M111.142 133.643C91.353 133.643 75.3109 149.685 75.3109 169.474L73.8647 182.737C68.372 183.188 64.0547 187.788 64.0547 193.397C64.0547 198.203 67.2248 202.269 71.588 203.618L70.921 209.735C70.921 229.524 96.77 245.949 111.142 245.949C125.514 245.949 150.84 227.182 150.84 212.324L150.04 203.462C154.162 201.976 157.108 198.03 157.108 193.397C157.108 188.092 153.246 183.689 148.18 182.846L146.973 169.474C146.973 149.685 130.931 133.643 111.142 133.643Z" fill="#F6C09D"/>
<rect x="106.838" y="186.979" width="10.6958" height="25.67" rx="5.34791" fill="#DF6664"/>
<rect x="105.769" y="183.771" width="10.6958" height="25.67" rx="5.34791" fill="#F6C09D"/>
<path d="M132.508 192.862C132.508 194.929 130.832 196.605 128.764 196.605C126.697 196.605 125.021 194.929 125.021 192.862C125.021 190.794 126.697 189.118 128.764 189.118C130.832 189.118 132.508 190.794 132.508 192.862Z" fill="#41030A"/>
<path d="M97.2117 192.862C97.2117 194.929 95.5356 196.605 93.4681 196.605C91.4006 196.605 89.7246 194.929 89.7246 192.862C89.7246 190.794 91.4006 189.118 93.4681 189.118C95.5356 189.118 97.2117 190.794 97.2117 192.862Z" fill="#41030A"/>
<path d="M111.841 230.928C104.852 231.872 99.1339 224.396 97.1484 220.539C99.6992 222.054 103.697 219.548 109.83 218.915C115.062 218.375 122.511 221.55 125.739 220.234C124.019 223.303 118.83 229.984 111.841 230.928Z" fill="#DF6664"/>
<path fill-rule="evenodd" clip-rule="evenodd" d="M124.234 222.272C121.328 223.381 117.52 224.596 113.019 225.044C107.796 225.563 101.83 223.934 99.1014 222.623C98.8717 222.255 98.6703 221.907 98.499 221.586C99.9403 222.411 101.892 221.957 104.489 221.354C106.127 220.973 108.021 220.533 110.206 220.316C112.464 220.092 115.166 220.553 117.706 220.987C120.586 221.479 123.258 221.936 124.839 221.315C124.672 221.602 124.47 221.924 124.234 222.272Z" fill="#E3E3E3"/>
<path d="M84.541 139.834V130.716C89.081 127.189 98.6113 119.46 101.763 117.096C104.915 114.733 118.798 115.633 123.488 115.295C123.488 115.295 142.173 119.46 148.251 124.188C154.33 128.915 158.945 139.834 158.945 139.834C158.945 139.834 163.447 154.129 166.712 160.658C169.976 167.187 188.098 179.681 189.449 186.547C190.8 193.414 194.965 227.633 194.289 236.413C193.614 245.192 180.714 246.813 179.093 245.192C177.473 243.572 174.141 228.083 170.539 225.381C166.937 222.68 158.945 229.997 154.33 225.381C149.715 220.766 149.827 203.882 148.251 199.492C146.675 195.102 141.16 186.885 140.71 181.37C140.259 175.854 140.71 166.624 138.121 166.624C135.532 166.624 131.142 156.268 132.042 153.454C132.943 150.64 123.263 146.925 119.435 147.376C115.608 147.826 104.239 155.03 98.1611 153.454C92.0827 151.878 84.541 139.834 84.541 139.834Z" fill="url(#paint5_linear)"/>
<path d="M89.6627 148.936C91.2953 141.604 86.4133 139.604 86.4133 139.604L83.0459 139.351C83.0459 139.351 74.4737 141.748 71.7782 145.09C69.0827 148.431 67.4979 165.392 64.6561 170.763C61.1039 177.476 56.8123 189.316 55.9499 194.782C55.0875 200.249 42.5528 216.626 42.5548 221.104C42.5569 225.582 54.8767 254.887 57.9763 254.198C60.4559 253.647 71.9485 253.205 74.4737 250.146L80.221 235.063C79.5487 230.49 72.1409 219.754 74.4737 212.855C75.5169 209.77 76.6356 210.861 76.6356 205.571C76.6356 200.281 74.4737 200.393 75.832 194.782C77.1903 189.171 79.6594 184.409 80.221 176.937C80.4336 174.109 78.3311 168.763 81.6144 159.533C81.6144 159.533 88.0301 156.268 89.6627 148.936Z" fill="url(#paint6_linear)"/>
<path d="M57.2129 276.373C57.2129 266.974 64.8324 259.355 74.2315 259.355H148.778C158.177 259.355 165.797 266.974 165.797 276.373V361.227C165.797 370.626 158.177 378.245 148.778 378.245H74.2315C64.8324 378.245 57.2129 370.626 57.2129 361.227V276.373Z" fill="#65C3C9"/>
<path d="M57.2129 276.475C57.2129 267.02 64.8889 259.355 74.3577 259.355H148.652C158.121 259.355 165.797 267.02 165.797 276.475V361.125C165.797 370.58 158.121 378.245 148.652 378.245H74.3577C64.8889 378.245 57.2129 370.58 57.2129 361.125V276.475Z" fill="#65C3C9"/>
<path d="M111.025 278.051C121.682 278.051 130.321 269.466 130.321 258.875H91.7295C91.7295 269.466 100.369 278.051 111.025 278.051Z" fill="#F6C09D"/>
<path d="M281.012 118.826C257.649 114.346 250.389 131.426 249.679 140.526C251.403 151.337 257.162 178.233 266.41 199.327C275.658 220.42 311.636 202.982 328.469 191.627C323.399 191.393 311.372 189.48 303.828 183.693C294.398 176.46 310.216 124.426 281.012 118.826Z" fill="#41030A"/>
<rect x="236.881" y="237.945" width="33.8309" height="31.7164" fill="#F6C09D"/>
<path d="M270.712 247.587V234.774H253.796H236.881V248.309C243.065 252.434 249.339 254.861 253.268 254.861C257.421 254.861 264.194 252.15 270.712 247.587Z" fill="#DF6664"/>
<path fill-rule="evenodd" clip-rule="evenodd" d="M253.267 136.452C233.707 136.452 217.851 152.309 217.851 171.869V185.084C217.851 185.084 217.851 185.084 217.85 185.084C212.012 185.084 207.278 189.817 207.278 195.656C207.278 201.495 212.012 206.228 217.85 206.228C217.851 206.228 217.851 206.228 217.851 206.228V212.043C217.851 231.603 243.224 247.46 253.267 247.46C263.311 247.46 288.684 231.603 288.684 212.043V206.228C294.523 206.228 299.256 201.495 299.256 195.656C299.256 189.817 294.523 185.084 288.684 185.084V171.869C288.684 152.309 272.827 136.452 253.267 136.452Z" fill="#F6C09D"/>
<rect x="249.567" y="189.313" width="10.5722" height="25.3732" rx="5.28608" fill="#DF6664"/>
<rect x="248.511" y="186.141" width="10.5722" height="25.3732" rx="5.28608" fill="#F6C09D"/>
<path fill-rule="evenodd" clip-rule="evenodd" d="M274.333 197.16C274.717 196.576 274.941 195.878 274.941 195.128C274.941 193.084 273.284 191.427 271.24 191.427C269.197 191.427 267.54 193.084 267.54 195.128C267.54 195.762 267.699 196.358 267.98 196.88C268.642 195.875 269.78 195.211 271.073 195.211C272.483 195.211 273.709 196 274.333 197.16Z" fill="#071F2D"/>
<path fill-rule="evenodd" clip-rule="evenodd" d="M239.445 197.16C239.829 196.577 240.053 195.878 240.053 195.128C240.053 193.084 238.396 191.427 236.353 191.427C234.309 191.427 232.652 193.084 232.652 195.128C232.652 195.761 232.812 196.358 233.092 196.879C233.754 195.875 234.892 195.211 236.185 195.211C237.595 195.211 238.821 196 239.445 197.16Z" fill="#071F2D"/>
<path d="M254.855 227.869C248.104 228.38 242.582 224.332 240.664 222.244C247.414 220.3 261.886 221.434 268.278 222.244C266.616 223.906 261.605 227.357 254.855 227.869Z" fill="#DF6664"/>
<path fill-rule="evenodd" clip-rule="evenodd" d="M264.295 224.854C258.231 224.294 249.63 223.879 243.983 224.792C242.824 224.005 241.928 223.21 241.363 222.595C247.714 220.767 261.329 221.834 267.343 222.595C266.751 223.187 265.708 224.021 264.295 224.854Z" fill="#E3E3E3"/>
<path d="M215.291 202.89C215.291 202.89 217.962 196.213 217.962 189.369C217.962 182.525 212.62 174.011 216.627 156.484C220.735 138.51 240.217 132.947 252.516 132.947C266.037 132.947 285.189 139.537 289.074 152.811C297.086 180.188 288.072 195.712 286.52 209.4C286.392 207.584 286.757 188.227 286.52 186.698C283.777 168.998 274.259 166.794 270.878 152.812C253.017 170.005 227.978 160.323 222.469 165.164C216.751 170.189 227.978 189.703 215.291 202.89Z" fill="#4C150E"/>
<path d="M265.181 134.782C269.418 133.67 278.695 133.677 281.914 142.599C276.089 138.023 268.332 135.481 265.181 134.782Z" fill="#F23D7F"/>
<path d="M200.089 276.373C200.089 266.974 207.708 259.354 217.108 259.354H291.654C301.053 259.354 308.673 266.974 308.673 276.373V361.226C308.673 370.626 301.053 378.245 291.654 378.245H217.108C207.708 378.245 200.089 370.626 200.089 361.226V276.373Z" fill="#EB5757"/>
<path d="M200.089 276.475C200.089 267.019 207.765 259.354 217.234 259.354H291.528C300.997 259.354 308.673 267.019 308.673 276.475V361.125C308.673 370.58 300.997 378.245 291.528 378.245H217.234C207.765 378.245 200.089 370.58 200.089 361.125V276.475Z" fill="#EB5757"/>
<path d="M253.901 278.051C264.558 278.051 273.197 269.466 273.197 258.875H234.605C234.605 269.466 243.244 278.051 253.901 278.051Z" fill="#F6C09D"/>
<defs>
<linearGradient id="paint0_linear" x1="29.5922" y1="62.4745" x2="31.7922" y2="80.9233" gradientUnits="userSpaceOnUse">
<stop stop-color="#7B7B7B" stop-opacity="0.76"/>
<stop offset="1" stop-color="#7B7B7B" stop-opacity="0"/>
</linearGradient>
<linearGradient id="paint1_linear" x1="75.4732" y1="62.404" x2="73.2732" y2="80.8528" gradientUnits="userSpaceOnUse">
<stop stop-color="#7B7B7B" stop-opacity="0.76"/>
<stop offset="1" stop-color="#7B7B7B" stop-opacity="0"/>
</linearGradient>
<linearGradient id="paint2_linear" x1="395.081" y1="188.68" x2="395.081" y2="208.996" gradientUnits="userSpaceOnUse">
<stop stop-color="#C4C4C4" stop-opacity="0.75"/>
<stop offset="1" stop-color="#C4C4C4" stop-opacity="0"/>
</linearGradient>
<linearGradient id="paint3_linear" x1="68.3342" y1="134.895" x2="68.3342" y2="290.325" gradientUnits="userSpaceOnUse">
<stop offset="0.119792" stop-color="#41030A"/>
<stop offset="1" stop-color="#EF2253"/>
</linearGradient>
<linearGradient id="paint4_linear" x1="154.651" y1="134.9" x2="154.651" y2="291" gradientUnits="userSpaceOnUse">
<stop offset="0.119792" stop-color="#41030A"/>
<stop offset="1" stop-color="#EF2253"/>
</linearGradient>
<linearGradient id="paint5_linear" x1="139.89" y1="116.337" x2="139.89" y2="245.746" gradientUnits="userSpaceOnUse">
<stop offset="0.119792" stop-color="#41030A"/>
<stop offset="1" stop-color="#EF2253"/>
</linearGradient>
<linearGradient id="paint6_linear" x1="69.7852" y1="139.287" x2="61.1294" y2="254.453" gradientUnits="userSpaceOnUse">
<stop offset="0.119792" stop-color="#41030A"/>
<stop offset="1" stop-color="#EF2253"/>
</linearGradient>
</defs>
</svg>
