<svg width="422" height="422" viewBox="0 0 422 422" fill="none" xmlns="http://www.w3.org/2000/svg">
<circle cx="211" cy="211" r="211" fill="#FED613"/>
<mask id="mask0" mask-type="alpha" maskUnits="userSpaceOnUse" x="0" y="0" width="422" height="422">
<circle cx="211" cy="211" r="211" fill="#C4C4C4"/>
</mask>
<g mask="url(#mask0)">
<path d="M204.317 387.629C204.317 368.646 219.705 353.258 238.688 353.258H387.629C406.612 353.258 422 368.646 422 387.629V557.575C422 576.557 406.612 591.946 387.629 591.946H238.688C219.705 591.946 204.317 576.557 204.317 557.575V387.629Z" fill="#F5364C"/>
<path d="M-10.6426 374.536C-10.6426 355.553 4.74586 340.165 23.7285 340.165H172.67C191.652 340.165 207.041 355.553 207.041 374.536V544.482C207.041 563.464 191.652 578.853 172.67 578.853H23.7285C4.74586 578.853 -10.6426 563.464 -10.6426 544.482V374.536Z" fill="#418BCC"/>
<path d="M160.59 239.766C142.697 204.675 174.353 189.635 204.634 126.971C228.839 76.8793 278.321 65.1518 301.289 65.5504H305.418C328.357 65.1326 378.917 76.8404 403.141 126.971C433.422 189.635 465.078 204.675 447.185 239.766C432.871 267.84 402.682 284.049 389.377 288.644C393.965 283.631 403.141 271.6 403.141 263.579C372.86 296.164 343.957 307.443 304.042 307.443L303.733 307.443C263.818 307.443 234.914 296.164 204.634 263.579C204.634 271.6 213.81 283.631 218.398 288.644C205.093 284.049 174.904 267.84 160.59 239.766Z" fill="#252C4A"/>
<path d="M390.11 172.066H210.479C213.658 140.996 236.867 78.8554 304.269 78.8554C371.67 78.8554 389.581 140.996 390.11 172.066Z" fill="#252C4A"/>
<path d="M267.961 300.259H344.604V359.537C344.604 359.537 335.024 379.296 307.48 379.296C279.937 379.296 267.961 359.537 267.961 359.537V300.259Z" fill="#B94B26"/>
<path d="M344.604 322.101V293.073H306.283H267.961V323.738C281.971 333.083 296.185 338.58 305.085 338.58C314.494 338.58 329.839 332.438 344.604 322.101Z" fill="#551200"/>
<path fill-rule="evenodd" clip-rule="evenodd" d="M305.085 70.3302C260.772 70.3302 224.85 106.253 224.85 150.566L224.85 180.504C211.622 180.504 200.899 191.227 200.899 204.455C200.899 217.683 211.622 228.406 224.85 228.406L224.85 241.579C224.85 285.892 282.332 321.814 305.085 321.814C327.839 321.814 385.321 285.892 385.321 241.579L385.321 228.406C398.548 228.406 409.271 217.683 409.271 204.455C409.271 191.227 398.548 180.504 385.321 180.504L385.321 150.566C385.321 106.253 349.398 70.3302 305.085 70.3302Z" fill="#B94B26"/>
<ellipse cx="266.764" cy="203.258" rx="8.38281" ry="8.3828" fill="#252C4A"/>
<ellipse cx="345.802" cy="203.258" rx="8.38281" ry="8.3828" fill="#252C4A"/>
<rect x="296.703" y="190.085" width="23.9509" height="57.4821" rx="3.23213" fill="#551200"/>
<rect x="294.308" y="182.899" width="23.9509" height="57.4821" rx="3.23213" fill="#B94B26"/>
<path d="M330.932 261.937H282.728C282.146 261.937 281.636 262.326 281.481 262.887L275.597 284.252C275.37 285.075 275.99 285.888 276.844 285.888H325.047C325.629 285.888 326.139 285.499 326.294 284.938L332.178 263.573C332.405 262.75 331.785 261.937 330.932 261.937Z" fill="#252C4A"/>
<path d="M342.209 71.8636C383.573 94.3185 392.317 147.937 393.69 162.001C393.722 162.326 393.505 162.592 393.186 162.66C349.417 171.973 289.329 161.024 267.148 149.569C266.909 149.445 266.787 149.19 266.821 148.923L271.554 112.245L263.346 147.423C263.254 147.814 262.832 148.027 262.457 147.883C246.883 141.905 225.777 153.877 216.82 148.4C216.601 148.266 216.5 147.996 216.549 147.745C234.714 54.7923 327.86 64.6892 342.209 71.8636Z" fill="#252C4A"/>
<path d="M59.1597 282.633H130.573V349.713C130.573 349.713 128.341 367.605 111.604 367.605C94.8662 367.605 59.1597 349.713 59.1597 349.713V282.633Z" fill="#F1A761"/>
<path fill-rule="evenodd" clip-rule="evenodd" d="M130.573 320.645H59.1597V293.813H130.573V320.645Z" fill="#CA5D22"/>
<path fill-rule="evenodd" clip-rule="evenodd" d="M35.243 32.2025C22.5691 32.2025 12.2949 42.4767 12.2949 55.1506V284.281C12.2949 296.955 22.5692 307.229 35.2431 307.229H152.258C164.932 307.229 175.206 296.955 175.206 284.281V258.746C173.51 259.372 171.654 259.892 169.627 260.273C151.773 263.627 117.183 221.143 136.152 226.733C150.583 230.986 167.505 228.835 175.206 227.012V55.1506C175.206 42.4767 164.932 32.2025 152.258 32.2025H35.243Z" fill="#F1A761"/>
<ellipse cx="131.688" cy="171.952" rx="7.81082" ry="7.82596" fill="#252C4A"/>
<rect width="22.3241" height="53.6457" rx="3.23213" transform="matrix(0.908725 -0.417396 0.416062 0.909336 155.121 160.028)" fill="#F1A761"/>
<ellipse cx="65.8542" cy="188.722" rx="22.3166" ry="22.3599" fill="#CA5D22"/>
<ellipse cx="70.3176" cy="186.486" rx="22.3166" ry="22.3599" fill="#F1A761"/>
<path d="M86.7559 199.028L74.8355 164.284C74.7996 164.179 74.7504 164.079 74.6881 163.987C67.9323 154.044 51.2974 151.885 40.1905 164.126C28.4419 177.074 41.3064 234.559 29.0323 246.857C19.6383 256.27 6.09078 243.921 -0.275927 235.654C-0.730313 235.064 -0.566967 234.22 -0.041028 233.693C4.03693 229.606 9.40068 215.746 4.48405 185.368C-2.21093 144.002 -5.01459 78.5986 29.0322 45.6227C62.507 13.2009 107.14 33.325 141.731 29.9711C176.322 26.6171 186.364 16.5506 197.523 29.9666C208.681 43.3825 194.175 101.518 167.395 110.462C140.615 119.406 97.098 102.636 87.0555 124.996C79.2799 142.309 89.691 179.868 96.4383 198.145C96.7521 198.995 96.1259 199.902 95.2197 199.902H87.9788C87.4265 199.902 86.9352 199.551 86.7559 199.028Z" fill="#252C4A"/>
</g>
</svg>
