<svg width="105" height="164" viewBox="0 0 105 164" fill="none" xmlns="http://www.w3.org/2000/svg">
<path d="M37.1058 3.44487C20.5066 6.18617 20.3764 22.2345 22.4178 30.2497C25.7133 27.1833 29.6992 20.6634 41.0764 18.8374C50.206 17.3721 58.8249 19.2939 65.6512 22.0329C65.2257 11.7104 58.0084 -0.00713229 37.1058 3.44487Z" fill="#071F2D"/>
<rect x="36.1758" y="106.019" width="29.1256" height="27.3893" fill="#F6C09D"/>
<path d="M65.3014 114.345V103.28H50.7386H36.1758V114.969C41.4995 118.532 46.9012 120.627 50.2835 120.627C53.8588 120.627 59.6905 118.286 65.3014 114.345Z" fill="#DF6664"/>
<path fill-rule="evenodd" clip-rule="evenodd" d="M50.2835 18.3735C33.4439 18.3735 19.7927 32.0667 19.7927 48.9582V60.3704C14.7659 60.3704 10.6909 64.4579 10.6909 69.5002C10.6909 74.5424 14.7659 78.6299 19.7927 78.6299V83.6513C19.7927 100.543 41.6368 114.236 50.2835 114.236C58.9302 114.236 80.7743 100.543 80.7743 83.6513V78.6299C85.8011 78.6299 89.8761 74.5424 89.8761 69.5002C89.8761 64.4579 85.8011 60.3704 80.7743 60.3704V48.9582C80.7743 32.0667 67.1231 18.3735 50.2835 18.3735Z" fill="#F6C09D"/>
<ellipse cx="35.7208" cy="69.0437" rx="3.18561" ry="3.19542" fill="#4C150E"/>
<ellipse cx="65.7564" cy="69.0437" rx="3.18561" ry="3.19542" fill="#4C150E"/>
<rect x="47.0977" y="64.0223" width="9.10175" height="21.9114" rx="4.55087" fill="#DF6664"/>
<rect x="46.1875" y="61.2834" width="9.10174" height="21.9114" rx="4.55087" fill="#F6C09D"/>
<path d="M0.679199 146.19C0.679199 137.114 8.01418 129.757 17.0623 129.757H88.0559C97.1041 129.757 104.439 137.114 104.439 146.19V227.445C104.439 236.521 97.1041 243.879 88.0559 243.879H17.0623C8.01418 243.879 0.679199 236.521 0.679199 227.445V146.19Z" fill="#F2994A"/>
<path fill-rule="evenodd" clip-rule="evenodd" d="M31.625 129.757C31.625 129.757 31.625 129.757 31.625 129.757C31.625 140.345 40.1825 148.929 50.7387 148.929C61.2948 148.929 69.8523 140.345 69.8523 129.757L31.625 129.757Z" fill="#F6C09D"/>
<path d="M63.5884 41.5682C57.8538 48.2789 49.4034 54.9776 38.0209 56.262C17.3353 58.596 18.2689 69.5001 17.3454 69.5001C16.8837 55.3987 13.6699 19.2864 48.3148 19.2864C63.9915 19.2865 70.1611 25.2745 71.8257 27.345C73.7015 27.8471 75.7347 28.6634 77.8676 29.9843C84.1488 33.8744 84.3326 55.918 82.4849 64.0223C81.0998 60.2943 76.4824 52.0604 69.0948 48.9483C66.2501 47.75 64.5465 44.9032 63.5884 41.5682Z" fill="#071F2D"/>
<path d="M50.7388 148.894C37.7757 147.801 33.2641 135.225 32.1521 129.757C24.0498 136.592 25.4794 144.793 28.8158 148.894C32.1521 152.995 45.0195 158.919 50.7388 148.894Z" fill="#F5364C"/>
<path d="M50.7388 148.894C63.7019 147.801 68.2134 135.225 69.3255 129.757C77.4278 136.592 75.9981 144.793 72.6618 148.894C69.3254 152.995 56.458 158.919 50.7388 148.894Z" fill="#F5364C"/>
<path d="M37.1058 1.61892C20.5066 4.36022 20.3764 20.4086 22.4178 28.4237C25.7133 25.3573 29.6992 18.8375 41.0764 17.0114C50.206 15.5461 58.8249 17.468 65.6512 20.207C65.2257 9.88444 58.0084 -1.83307 37.1058 1.61892Z" fill="#7B7B7B"/>
<path d="M63.3156 40.1473C57.5024 46.9801 48.9362 53.8006 37.3978 55.1083C16.4289 57.4848 17.3753 68.5872 16.4392 68.5872C15.9711 54.2293 12.7133 17.4604 47.8328 17.4605C63.7242 17.4605 69.9783 23.5574 71.6658 25.6655C73.5672 26.1767 75.6283 27.0079 77.7904 28.3529C84.1577 32.3137 84.3439 54.7581 82.471 63.0097C81.0668 59.214 76.3863 50.8303 68.8974 47.6617C66.0138 46.4416 64.2868 43.543 63.3156 40.1473Z" fill="#7B7B7B"/>
<path d="M41.6372 92.3246C44.9745 94.9113 53.4695 98.5328 60.7509 92.3246" stroke="#DF6664"/>
<path d="M42.5471 71.3261C41.3336 72.9999 37.0861 76.0736 29.8047 74.978" stroke="#7B7B7B"/>
<path d="M59.8406 71.3261C61.0541 72.9999 65.3016 76.0736 72.583 74.978" stroke="#7B7B7B"/>
</svg>
