<svg width="94" height="177" viewBox="0 0 94 177" fill="none" xmlns="http://www.w3.org/2000/svg">
<rect x="33.9946" y="98.6535" width="26.06" height="24.4312" fill="#F1A761"/>
<path fill-rule="evenodd" clip-rule="evenodd" d="M60.0546 109.294C56.019 111.343 51.453 112.498 46.6173 112.498C42.1042 112.498 37.826 111.492 33.9946 109.692V102.725H60.0546V109.294Z" fill="#CA5D22"/>
<path fill-rule="evenodd" clip-rule="evenodd" d="M16.8929 37.1683C16.8929 20.7518 30.2011 7.44359 46.6175 7.44359C63.034 7.44359 76.3422 20.7518 76.3422 37.1682V56.306C80.8398 56.3061 84.4857 59.9522 84.4857 64.4498C84.4857 68.9474 80.8398 72.5934 76.3422 72.5935V77.8869C76.3422 94.3034 63.034 107.612 46.6175 107.612C30.2011 107.612 16.8929 94.3034 16.8929 77.8869V72.5935H16.8928C12.3951 72.5935 8.74907 68.9474 8.74907 64.4498C8.74907 59.9521 12.3951 56.306 16.8928 56.306H16.8929V37.1683Z" fill="#F1A761"/>
<ellipse cx="33.5876" cy="58.342" rx="2.8503" ry="2.85031" fill="#071F2D"/>
<ellipse cx="60.4616" cy="58.342" rx="2.85031" ry="2.85031" fill="#071F2D"/>
<rect x="43.7671" y="53.8629" width="8.14374" height="19.545" rx="4.07187" fill="#CA5D22"/>
<rect x="42.9526" y="51.4198" width="8.14374" height="19.545" rx="4.07187" fill="#F1A761"/>
<path d="M0.60498 141.643C0.60498 131.394 8.91396 123.085 19.1636 123.085H74.885C85.1346 123.085 93.4436 131.394 93.4436 141.643V206.323C93.4436 216.572 85.1346 224.881 74.885 224.881H19.1636C8.91395 224.881 0.60498 216.572 0.60498 206.323V141.643Z" fill="#071F2D"/>
<path d="M0.60498 137.743C0.60498 129.648 7.16792 123.085 15.2637 123.085H78.7849C86.8807 123.085 93.4436 129.648 93.4436 137.743V210.223C93.4436 218.318 86.8807 224.881 78.7849 224.881H15.2637C7.16792 224.881 0.60498 218.318 0.60498 210.223V137.743Z" fill="#071F2D"/>
<path d="M47.0246 200.043L28.7012 123.085H63.7192L47.0246 200.043Z" fill="#E3E3E3"/>
<path d="M43.9704 131.228L41.3237 123.085H51.9106L49.2639 131.228H43.9704Z" fill="#2C51BF"/>
<path fill-rule="evenodd" clip-rule="evenodd" d="M50.9036 182.658L47.4855 198.414H47.115L42.9527 180.933L44.4589 131.228H49.3451L50.9036 182.658Z" fill="#2C51BF"/>
<path d="M26.6054 50.493C25.509 52.0836 25.844 55.574 26.1485 57.1204C26.7577 56.1631 28.5241 53.8509 30.7169 52.2603C32.9098 50.6697 39.2447 53.8067 42.1381 55.574V51.1557C40.3868 50.5666 36.1991 49.2117 33.458 48.5048C30.0317 47.6211 27.9759 48.5048 26.6054 50.493Z" fill="#F99723"/>
<path d="M27.4795 63.6195C30.1473 64.5156 36.3253 65.4475 39.6951 62.0066" stroke="#CA5D22" stroke-width="1.03103"/>
<path d="M27.4795 61.9908C30.1473 62.8868 36.3253 63.8187 39.6951 60.3778" stroke="#F6C09D" stroke-width="3.0931"/>
<path d="M71.5815 40.5977C70.9833 38.4045 72.6614 35.6963 73.5753 34.6163L79.8059 31.8748C79.0583 34.7824 77.5629 41.8937 77.5629 47.0776C77.5629 53.5575 79.8059 58.7912 77.5629 60.0374C77.1641 58.6417 74.7383 58.6251 73.5753 58.7912C73.9076 56.7974 74.622 52.3113 74.8214 50.3175C75.0706 47.8253 72.3291 43.3392 71.5815 40.5977Z" fill="#F99723"/>
<path d="M9.97723 34.0187C9.57847 26.2428 15.4602 24.465 18.4509 24.5481L37.8907 34.7664C34.3184 34.9325 26.6755 35.9627 24.6817 38.754C22.6878 41.5454 23.1863 45.5662 23.6847 47.2277C22.9371 47.8092 21.0928 49.7698 19.6971 52.9599C18.3015 56.15 19.1156 61.5998 19.6971 63.9259H16.2079C16.2079 63.4274 16.0086 61.9819 15.211 60.1875C14.4135 58.3931 8.39885 58.6091 5.49121 58.9414C7.31887 57.3629 11.024 53.1593 11.2234 48.9723C11.4726 43.7385 10.4757 43.7385 9.97723 34.0187Z" fill="#CA5D22"/>
<path d="M9.97723 33.2044C9.57847 25.4285 15.4602 23.6507 18.4509 23.7338L37.8907 33.952C34.3184 34.1182 26.6755 35.1483 24.6817 37.9397C22.6878 40.731 23.1863 44.7519 23.6847 46.4134C22.9371 46.9949 21.0928 48.9555 19.6971 52.1456C18.3015 55.3357 19.1156 60.7854 19.6971 63.1115H16.2079C16.2079 62.6131 16.0086 61.1676 15.211 59.3731C14.4135 57.5787 8.39885 57.7947 5.49121 58.127C7.31887 56.5486 11.024 52.345 11.2234 48.158C11.4726 42.9242 10.4757 42.9242 9.97723 33.2044Z" fill="#F99723"/>
<path d="M7.1096 24.6945C4.34965 18.9636 9.70767 19.0401 12.7317 19.7947C11.9858 16.9305 10.0893 11.0456 8.47035 10.42C12.8108 8.06771 17.9635 9.78756 19.9974 10.9415C20.0247 8.89357 19.8139 4.24663 18.7524 2.04242C22.9656 0.531128 26.3085 3.78947 30.1593 7.31304C43.1999 -0.860939 49.8551 4.53991 51.6287 5.32878C53.0475 5.95989 70.6821 9.55233 79.322 11.2697C82.9473 12.6592 90.0424 17.0616 89.4195 23.5552C88.6409 31.6723 73.5613 38.5063 58.806 38.9108C44.0508 39.3152 10.5595 31.8582 7.1096 24.6945Z" fill="#CA5D22"/>
<path d="M6.99813 22.7625C4.39623 16.9581 9.75015 17.1814 12.7523 18.0185C12.0852 15.1349 10.3506 9.20033 8.74947 8.53059C13.1527 6.29813 18.2564 8.15851 20.2579 9.36776C20.3413 7.32133 20.2579 2.67036 19.2571 0.437899C23.5103 -0.95739 26.7626 2.39131 30.5154 6.01906C43.7751 -1.79456 50.2798 3.7866 52.0311 4.62377C53.4321 5.29351 70.9616 9.36776 79.5512 11.3212C83.1372 12.8095 90.1089 17.4046 89.3083 23.8788C88.3076 31.9714 73.0464 38.3898 58.2857 38.3898C43.5249 38.3898 10.2505 30.018 6.99813 22.7625Z" fill="#F9B023"/>
<path d="M25.7909 49.6786C24.6945 51.2692 25.0295 54.7596 25.3341 56.306C25.9432 55.3487 27.7096 53.0365 29.9025 51.4459C32.0953 49.8553 38.4303 52.9923 41.3236 54.7596V50.3413C39.5724 49.7522 35.3846 48.3973 32.6436 47.6904C29.2172 46.8067 27.1615 47.6904 25.7909 49.6786Z" fill="#F9B023"/>
<path d="M67.443 50.493C68.5394 52.0836 68.2044 55.574 67.8998 57.1204C67.2907 56.1631 65.5243 53.8509 63.3314 52.2603C61.1385 50.6697 54.8036 53.8067 51.9103 55.574V51.1557C53.6615 50.5666 57.8493 49.2117 60.5903 48.5048C64.0167 47.6211 66.0724 48.5048 67.443 50.493Z" fill="#F99723"/>
<path d="M66.5693 63.6354C63.9905 64.9926 58.0184 66.4042 54.7609 61.1922" stroke="#CA5D22" stroke-width="1.03103"/>
<path d="M66.9766 62.0066C64.3977 63.3639 58.4256 64.7755 55.1681 59.5635" stroke="#F6C09D" stroke-width="3.0931"/>
<path d="M68.2579 49.6786C69.3543 51.2692 69.0193 54.7596 68.7147 56.306C68.1056 55.3487 66.3392 53.0365 64.1463 51.4459C61.9535 49.8553 55.6186 52.9923 52.7252 54.7596V50.3413C54.4765 49.7522 58.6642 48.3973 61.4053 47.6904C64.8316 46.8067 66.8874 47.6904 68.2579 49.6786Z" fill="#F9B023"/>
<path d="M37.252 88.0666C40.1023 86.0306 48.0831 82.936 57.2041 86.845" stroke="#CA5D22" stroke-width="1.03103"/>
<path d="M42.5454 68.9288C41.0524 70.5576 37.9035 74.9552 37.252 79.5157" stroke="#CA5D22" stroke-width="1.03103"/>
<path d="M52.7251 69.336C54.2181 70.9647 57.3671 75.3624 58.0186 79.9229" stroke="#CA5D22" stroke-width="1.03103"/>
</svg>
