<svg width="102" height="168" viewBox="0 0 102 168" fill="none" xmlns="http://www.w3.org/2000/svg">
<path d="M2.35512 64.4932C-3.72882 51.6162 7.03508 46.0975 17.331 23.103C25.5613 4.72162 42.3861 0.418185 50.1954 0.564446H51.5994C59.3993 0.411149 76.5905 4.70734 84.8272 23.103C95.1231 46.0975 105.887 51.6162 99.803 64.4932C94.9359 74.7947 84.6711 80.7426 80.1471 82.4289C81.7071 80.5894 84.8272 76.1744 84.8272 73.2311C74.5312 85.1883 64.7035 89.3273 51.1315 89.3273L51.0267 89.3273C37.4547 89.3273 27.627 85.1882 17.331 73.2311C17.331 76.1744 20.451 80.5893 22.011 82.4289C17.487 80.7426 7.22227 74.7947 2.35512 64.4932Z" fill="#4C150E"/>
<path d="M80.3964 39.6505H19.3184C20.3994 28.2492 28.2909 5.44675 51.2087 5.44675C74.1264 5.44675 80.2162 28.2492 80.3964 39.6505Z" fill="#4C150E"/>
<path d="M6.28857 125.974C6.28857 117.878 12.8515 111.315 20.9473 111.315H84.4685C92.5643 111.315 99.1272 117.878 99.1272 125.974V198.453C99.1272 206.549 92.5643 213.112 84.4685 213.112H20.9473C12.8515 213.112 6.28857 206.549 6.28857 198.453V125.974Z" fill="#B94B26"/>
<rect x="38.0488" y="87.6985" width="26.06" height="24.4312" fill="#B94B26"/>
<path d="M64.1088 95.1253V85.2554H51.0788H38.0488V95.6819C42.8122 98.8595 47.6453 100.728 50.6716 100.728C53.8706 100.728 59.0885 98.6402 64.1088 95.1253Z" fill="#551200"/>
<path fill-rule="evenodd" clip-rule="evenodd" d="M50.6719 9.51865C35.6047 9.51865 23.3904 21.733 23.3904 36.8002V46.9799C23.3904 46.9799 23.3903 46.9799 23.3903 46.9799C18.8926 46.9799 15.2466 50.6259 15.2466 55.1236C15.2466 59.6213 18.8926 63.2673 23.3903 63.2673C23.3903 63.2673 23.3904 63.2673 23.3904 63.2673V67.7464C23.3904 82.8136 42.9354 95.0279 50.6719 95.0279C58.4085 95.0279 77.9534 82.8136 77.9534 67.7464V63.2673C82.451 63.2673 86.0971 59.6212 86.0971 55.1236C86.0971 50.626 82.451 46.9799 77.9534 46.9799V36.8002C77.9534 21.733 65.7391 9.51865 50.6719 9.51865Z" fill="#B94B26"/>
<ellipse cx="37.6418" cy="54.7164" rx="2.85031" ry="2.85031" fill="#071F2D"/>
<ellipse cx="64.5163" cy="54.7164" rx="2.8503" ry="2.85031" fill="#071F2D"/>
<rect x="47.8213" y="50.2374" width="8.14373" height="19.545" rx="4.07187" fill="#551200"/>
<rect x="47.0068" y="47.7942" width="8.14374" height="19.545" rx="4.07187" fill="#B94B26"/>
<path d="M96.2769 127.636C84.3327 127.093 59.06 133.011 53.5222 161.025C71.8456 161.84 96.2769 159.804 96.2769 127.636Z" fill="#551200"/>
<path d="M7.91699 127.636C19.8611 127.093 45.1339 133.011 50.6716 161.025C32.3482 161.84 7.91699 159.804 7.91699 127.636Z" fill="#551200"/>
<path d="M51.0791 136.561V162.621L53.5222 160.585L51.0791 136.561Z" fill="#551200"/>
<path d="M8.32471 129.232C20.2689 128.689 45.5416 134.606 51.0793 162.621C32.7559 163.435 8.32471 161.399 8.32471 129.232Z" fill="#23510E"/>
<path d="M96.2773 129.265C84.3332 128.722 59.0604 134.64 53.5227 162.654C71.8461 163.468 96.2773 161.433 96.2773 129.265Z" fill="#23510E"/>
<path d="M95.4622 128.824L53.522 160.585H56.7795L95.4622 128.824Z" fill="#071F2D"/>
<path d="M8.73161 130.046L50.6719 161.807H47.4144L8.73161 130.046Z" fill="#071F2D"/>
<path d="M62.0732 80.7764H41.7139L48.2289 84.0339H51.8935L62.0732 80.7764Z" fill="#551200"/>
<path d="M78.7678 35.5786C68.3438 39.8133 42.1209 24.5845 30.3125 16.4408C43.3425 6.26111 57.1868 8.70423 62.0731 11.1474C76.3246 18.8839 78.3606 31.0995 78.7678 35.5786Z" fill="#4C150E"/>
<path d="M21.8514 46.5726C29.1054 46.2469 38.1154 30.5566 41.7137 23.363L29.6236 16.0336C28.1843 17.3909 24.6148 21.3271 21.8514 26.2133C17.5335 33.1355 20.9878 42.0936 21.8514 46.5726Z" fill="#4C150E"/>
</svg>
